<!DOCTYPE svg PUBLIC "-//W3C//DTD SVG 20010904//EN" "http://www.w3.org/TR/2001/REC-SVG-20010904/DTD/svg10.dtd">
<svg version="1.0" xmlns="http://www.w3.org/2000/svg" width="121px" height="85px" viewBox="0 0 1210 850" preserveAspectRatio="xMidYMid meet">
<g id="layer101" fill="#a93b31" stroke="none">
<path d="M0 425 l0 -425 605 0 605 0 0 425 0 425 -605 0 -605 0 0 -425z"/>
</g>
<g id="layer102" fill="#9c4d3b" stroke="none">
<path d="M0 425 l0 -425 605 0 605 0 0 425 0 425 -605 0 -605 0 0 -425z m977 248 c-4 -3 -10 -3 -14 0 -3 4 0 7 7 7 7 0 10 -3 7 -7z m-122 -133 c3 -5 4 -10 1 -10 -3 0 -8 5 -11 10 -3 6 -4 10 -1 10 3 0 8 -4 11 -10z m-700 -120 c3 -5 4 -10 1 -10 -3 0 -8 5 -11 10 -3 6 -4 10 -1 10 3 0 8 -4 11 -10z m30 -20 c3 -5 4 -10 1 -10 -3 0 -8 5 -11 10 -3 6 -4 10 -1 10 3 0 8 -4 11 -10z m782 -22 c-3 -8 -6 -5 -6 6 -1 11 2 17 5 13 3 -3 4 -12 1 -19z"/>
</g>
<g id="layer103" fill="#b44d36" stroke="none">
<path d="M0 425 l0 -425 605 0 605 0 0 425 0 425 -605 0 -605 0 0 -425z m837 319 c-3 -3 -12 -4 -19 -1 -8 3 -5 6 6 6 11 1 17 -2 13 -5z m-47 -14 c-8 -5 -19 -10 -25 -10 -5 0 -3 5 5 10 8 5 20 10 25 10 6 0 3 -5 -5 -10z m201 -27 c13 -16 12 -17 -3 -4 -10 7 -18 15 -18 17 0 8 8 3 21 -13z m-14 -30 c-4 -3 -10 -3 -14 0 -3 4 0 7 7 7 7 0 10 -3 7 -7z m-72 -13 c-27 -12 -43 -12 -25 0 8 5 22 9 30 9 10 0 8 -3 -5 -9z m122 3 c-4 -3 -10 -3 -14 0 -3 4 0 7 7 7 7 0 10 -3 7 -7z m-167 -17 c0 -3 -5 -8 -12 -12 -7 -4 -8 -3 -4 4 7 12 16 16 16 8z m-253 -73 c-4 -3 -10 -3 -14 0 -3 4 0 7 7 7 7 0 10 -3 7 -7z m248 -33 c3 -5 4 -10 1 -10 -3 0 -8 5 -11 10 -3 6 -4 10 -1 10 3 0 8 -4 11 -10z m-75 -44 c0 -2 -8 -10 -17 -17 -16 -13 -17 -12 -4 4 13 16 21 21 21 13z m-40 -40 c0 -2 -8 -10 -17 -17 -16 -13 -17 -12 -4 4 13 16 21 21 21 13z m218 -41 c-3 -3 -9 2 -12 12 -6 14 -5 15 5 6 7 -7 10 -15 7 -18z m-803 5 c3 -5 4 -10 1 -10 -3 0 -8 5 -11 10 -3 6 -4 10 -1 10 3 0 8 -4 11 -10z m30 -20 c3 -5 4 -10 1 -10 -3 0 -8 5 -11 10 -3 6 -4 10 -1 10 3 0 8 -4 11 -10z m782 -22 c-3 -8 -6 -5 -6 6 -1 11 2 17 5 13 3 -3 4 -12 1 -19z m-270 -5 c-4 -3 -7 0 -7 7 0 7 3 10 7 7 3 -4 3 -10 0 -14z m10 -40 c-4 -3 -7 0 -7 7 0 7 3 10 7 7 3 -4 3 -10 0 -14z m250 0 c-4 -3 -7 0 -7 7 0 7 3 10 7 7 3 -4 3 -10 0 -14z m-257 -47 c0 -2 -7 -9 -15 -16 -13 -11 -14 -10 -9 4 5 14 24 23 24 12z m-33 -58 c-3 -8 -6 -5 -6 6 -1 11 2 17 5 13 3 -3 4 -12 1 -19z m0 -35 c-4 -3 -7 0 -7 7 0 7 3 10 7 7 3 -4 3 -10 0 -14z m73 -8 c-13 -14 -27 -25 -32 -25 -9 0 42 49 51 50 3 0 -6 -11 -19 -25z m181 8 c13 -16 12 -17 -3 -4 -10 7 -18 15 -18 17 0 8 8 3 21 -13z m53 -42 c-2 -3 -12 3 -22 13 -16 17 -16 18 5 5 12 -7 20 -15 17 -18z"/>
</g>
<g id="layer104" fill="#db3b24" stroke="none">
<path d="M0 425 l0 -425 605 0 605 0 0 425 0 425 -605 0 -605 0 0 -425z m837 319 c-3 -3 -12 -4 -19 -1 -8 3 -5 6 6 6 11 1 17 -2 13 -5z m-47 -14 c-8 -5 -19 -10 -25 -10 -5 0 -3 5 5 10 8 5 20 10 25 10 6 0 3 -5 -5 -10z m-223 -17 c-4 -3 -10 -3 -14 0 -3 4 0 7 7 7 7 0 10 -3 7 -7z m424 -10 c13 -16 12 -17 -3 -4 -10 7 -18 15 -18 17 0 8 8 3 21 -13z m-444 -29 c-3 -3 -12 -4 -19 -1 -8 3 -5 6 6 6 11 1 17 -2 13 -5z m431 -1 c-10 -2 -26 -2 -35 0 -10 3 -2 5 17 5 19 0 27 -2 18 -5z m-73 -13 c-27 -12 -43 -12 -25 0 8 5 22 9 30 9 10 0 8 -3 -5 -9z m122 4 c-3 -3 -12 -4 -19 -1 -8 3 -5 6 6 6 11 1 17 -2 13 -5z m-167 -18 c0 -3 -5 -8 -12 -12 -7 -4 -8 -3 -4 4 7 12 16 16 16 8z m-253 -73 c-4 -3 -10 -3 -14 0 -3 4 0 7 7 7 7 0 10 -3 7 -7z m220 0 c-4 -3 -10 -3 -14 0 -3 4 0 7 7 7 7 0 10 -3 7 -7z m-80 -10 c-4 -3 -10 -3 -14 0 -3 4 0 7 7 7 7 0 10 -3 7 -7z m108 -23 c3 -5 4 -10 1 -10 -3 0 -8 5 -11 10 -3 6 -4 10 -1 10 3 0 8 -4 11 -10z m-55 -23 c0 -2 -12 -14 -27 -28 l-28 -24 24 28 c23 25 31 32 31 24z m75 -7 c3 -5 4 -10 1 -10 -3 0 -8 5 -11 10 -3 6 -4 10 -1 10 3 0 8 -4 11 -10z m-180 -20 c3 -5 4 -10 1 -10 -3 0 -8 5 -11 10 -3 6 -4 10 -1 10 3 0 8 -4 11 -10z m102 -37 c-4 -3 -7 0 -7 7 0 7 3 10 7 7 3 -4 3 -10 0 -14z m70 -5 c-3 -8 -6 -5 -6 6 -1 11 2 17 5 13 3 -3 4 -12 1 -19z m-127 8 c0 -2 -8 -10 -17 -17 -16 -13 -17 -12 -4 4 13 16 21 21 21 13z m-595 -26 c10 -11 16 -20 13 -20 -3 0 -13 9 -23 20 -10 11 -16 20 -13 20 3 0 13 -9 23 -20z m813 -15 c-3 -3 -9 2 -12 12 -6 14 -5 15 5 6 7 -7 10 -15 7 -18z m-748 -31 c0 -2 -9 0 -20 6 -11 6 -20 13 -20 16 0 2 9 0 20 -6 11 -6 20 -13 20 -16z m487 -6 c-3 -8 -6 -5 -6 6 -1 11 2 17 5 13 3 -3 4 -12 1 -19z m270 0 c-3 -8 -6 -5 -6 6 -1 11 2 17 5 13 3 -3 4 -12 1 -19z m-660 -24 c-3 -3 -12 -4 -19 -1 -8 3 -5 6 6 6 11 1 17 -2 13 -5z m260 0 c-3 -3 -12 -4 -19 -1 -8 3 -5 6 6 6 11 1 17 -2 13 -5z m-214 -11 c-7 -2 -19 -2 -25 0 -7 3 -2 5 12 5 14 0 19 -2 13 -5z m150 0 c-7 -2 -19 -2 -25 0 -7 3 -2 5 12 5 14 0 19 -2 13 -5z m204 -10 c-4 -3 -7 0 -7 7 0 7 3 10 7 7 3 -4 3 -10 0 -14z m250 0 c-4 -3 -7 0 -7 7 0 7 3 10 7 7 3 -4 3 -10 0 -14z m-247 -36 c0 -2 -9 -12 -20 -22 -24 -21 -27 -14 -4 9 15 15 24 20 24 13z m7 -34 c-4 -3 -7 0 -7 7 0 7 3 10 7 7 3 -4 3 -10 0 -14z m30 -10 c-4 -3 -10 -3 -14 0 -3 4 0 7 7 7 7 0 10 -3 7 -7z m190 0 c-4 -3 -10 -3 -14 0 -3 4 0 7 7 7 7 0 10 -3 7 -7z m-270 -25 c-3 -8 -6 -5 -6 6 -1 11 2 17 5 13 3 -3 4 -12 1 -19z m78 -39 c-18 -16 -36 -29 -40 -29 -3 0 7 12 24 26 17 14 31 33 31 42 0 14 2 14 9 3 6 -9 -1 -22 -24 -42z m171 9 l19 -23 -25 20 c-14 11 -27 21 -29 22 -2 2 0 3 6 3 5 0 18 -10 29 -22z m-249 -5 c-4 -3 -7 0 -7 7 0 7 3 10 7 7 3 -4 3 -10 0 -14z m150 11 c-3 -3 -12 -4 -19 -1 -8 3 -5 6 6 6 11 1 17 -2 13 -5z m50 -1 c-4 -3 -10 -3 -14 0 -3 4 0 7 7 7 7 0 10 -3 7 -7z m107 -52 c-2 -3 -12 3 -22 13 -16 17 -16 18 5 5 12 -7 20 -15 17 -18z"/>
</g>
<g id="layer105" fill="#bb3e4a" stroke="none">
<path d="M0 425 l0 -425 605 0 605 0 0 425 0 425 -605 0 -605 0 0 -425z m837 319 c-3 -3 -12 -4 -19 -1 -8 3 -5 6 6 6 11 1 17 -2 13 -5z m-47 -14 c-8 -5 -19 -10 -25 -10 -5 0 -3 5 5 10 8 5 20 10 25 10 6 0 3 -5 -5 -10z m-223 -17 c-4 -3 -10 -3 -14 0 -3 4 0 7 7 7 7 0 10 -3 7 -7z m424 -10 c13 -16 12 -17 -3 -4 -10 7 -18 15 -18 17 0 8 8 3 21 -13z m-444 -29 c-3 -3 -12 -4 -19 -1 -8 3 -5 6 6 6 11 1 17 -2 13 -5z m431 -1 c-10 -2 -26 -2 -35 0 -10 3 -2 5 17 5 19 0 27 -2 18 -5z m-73 -13 c-27 -12 -43 -12 -25 0 8 5 22 9 30 9 10 0 8 -3 -5 -9z m122 4 c-3 -3 -12 -4 -19 -1 -8 3 -5 6 6 6 11 1 17 -2 13 -5z m-167 -18 c0 -3 -5 -8 -12 -12 -7 -4 -8 -3 -4 4 7 12 16 16 16 8z m-253 -73 c-4 -3 -10 -3 -14 0 -3 4 0 7 7 7 7 0 10 -3 7 -7z m220 0 c-4 -3 -10 -3 -14 0 -3 4 0 7 7 7 7 0 10 -3 7 -7z m-80 -10 c-4 -3 -10 -3 -14 0 -3 4 0 7 7 7 7 0 10 -3 7 -7z m-624 -30 c-3 -16 -5 -37 -5 -48 1 -14 -1 -16 -7 -6 -8 12 -6 33 5 69 7 23 13 12 7 -15z m741 -8 c9 -14 15 -25 13 -25 -2 0 -13 11 -25 25 -12 14 -18 25 -13 25 5 0 16 -11 25 -25z m-39 5 c3 -6 -1 -7 -9 -4 -18 7 -21 14 -7 14 6 0 13 -4 16 -10z m-19 -22 c4 -7 3 -10 -1 -5 -5 4 -20 -3 -34 -15 l-26 -23 24 28 c28 31 28 31 37 15z m-661 -8 c3 -5 4 -10 1 -10 -3 0 -8 5 -11 10 -3 6 -4 10 -1 10 3 0 8 -4 11 -10z m550 -10 c3 -5 4 -10 1 -10 -3 0 -8 5 -11 10 -3 6 -4 10 -1 10 3 0 8 -4 11 -10z m174 -40 c1 -13 0 -13 -9 0 -5 8 -9 24 -9 35 l0 20 9 -20 c5 -11 9 -27 9 -35z m-63 14 c-4 -9 -9 -15 -11 -12 -3 3 -3 13 1 22 4 9 9 15 11 12 3 -3 3 -13 -1 -22z m-671 -5 c-4 -5 1 -20 11 -32 l18 -22 -23 21 c-20 19 -22 44 -5 44 3 0 2 -5 -1 -11z m605 -3 c0 -2 -8 -10 -17 -17 -16 -13 -17 -12 -4 4 13 16 21 21 21 13z m71 -39 c-8 -8 -11 -7 -11 4 0 20 13 34 18 19 3 -7 -1 -17 -7 -23z m147 -2 c-3 -3 -9 2 -12 12 -6 14 -5 15 5 6 7 -7 10 -15 7 -18z m-774 -6 c-4 -7 0 -9 13 -5 23 7 51 -18 33 -29 -6 -4 -9 -1 -8 6 2 6 -3 14 -11 17 -9 3 -11 0 -6 -8 6 -9 3 -9 -14 0 -18 9 -21 30 -5 30 3 0 2 -5 -2 -11z m601 -25 c-3 -31 -21 -52 -21 -25 0 11 5 17 10 14 5 -4 7 1 3 9 -3 9 -3 19 0 22 10 10 11 7 8 -20z m100 16 c3 -5 4 -10 1 -10 -3 0 -8 5 -11 10 -3 6 -4 10 -1 10 3 0 8 -4 11 -10z m-188 -22 c-3 -8 -6 -5 -6 6 -1 11 2 17 5 13 3 -3 4 -12 1 -19z m270 0 c-3 -8 -6 -5 -6 6 -1 11 2 17 5 13 3 -3 4 -12 1 -19z m-700 -5 c-4 -3 -10 -3 -14 0 -3 4 0 7 7 7 7 0 10 -3 7 -7z m73 -23 c20 -6 21 -8 5 -8 -11 0 -31 4 -45 8 -20 6 -21 8 -5 8 11 0 31 -4 45 -8z m100 -6 c0 -2 -11 -3 -24 -2 -14 1 -23 5 -20 9 4 7 44 0 44 -7z m70 0 c0 -2 -9 -4 -21 -4 -11 0 -18 4 -14 10 5 8 35 3 35 -6z m53 9 c-7 -2 -21 -2 -30 0 -10 3 -4 5 12 5 17 0 24 -2 18 -5z m334 0 c-4 -3 -10 -3 -14 0 -3 4 0 7 7 7 7 0 10 -3 7 -7z m-190 -20 c-4 -3 -7 0 -7 7 0 7 3 10 7 7 3 -4 3 -10 0 -14z m250 0 c-4 -3 -7 0 -7 7 0 7 3 10 7 7 3 -4 3 -10 0 -14z m-32 -3 c3 -5 4 -10 1 -10 -3 0 -8 5 -11 10 -3 6 -4 10 -1 10 3 0 8 -4 11 -10z m-175 -11 c0 -5 5 -7 12 -3 7 5 8 3 3 -5 -5 -9 -10 -10 -18 -2 -8 8 -20 2 -44 -21 -18 -18 -33 -29 -33 -25 0 8 63 67 73 67 4 0 7 -5 7 -11z m-27 -44 c-3 -9 -8 -14 -10 -11 -3 3 -2 9 2 15 9 16 15 13 8 -4z m212 -15 c3 -5 1 -10 -4 -10 -6 0 -11 5 -11 10 0 6 2 10 4 10 3 0 8 -4 11 -10z m-188 -7 c-4 -3 -10 -3 -14 0 -3 4 0 7 7 7 7 0 10 -3 7 -7z m163 -3 c0 -5 -5 -10 -11 -10 -5 0 -7 5 -4 10 3 6 8 10 11 10 2 0 4 -4 4 -10z m-243 -22 c-3 -8 -6 -5 -6 6 -1 11 2 17 5 13 3 -3 4 -12 1 -19z m77 -40 c-17 -15 -35 -28 -39 -28 -3 0 7 12 24 26 17 14 31 36 32 47 0 21 1 21 8 3 6 -15 0 -26 -25 -48z m171 13 l20 -25 -26 20 c-15 10 -25 23 -22 27 3 5 6 7 7 5 0 -2 10 -14 21 -27z m-248 -8 c-4 -3 -7 0 -7 7 0 7 3 10 7 7 3 -4 3 -10 0 -14z m150 11 c-3 -3 -12 -4 -19 -1 -8 3 -5 6 6 6 11 1 17 -2 13 -5z m50 -1 c-4 -3 -10 -3 -14 0 -3 4 0 7 7 7 7 0 10 -3 7 -7z m107 -52 c-2 -3 -12 3 -22 13 -16 17 -16 18 5 5 12 -7 20 -15 17 -18z"/>
</g>
<g id="layer106" fill="#af554c" stroke="none">
<path d="M0 425 l0 -425 605 0 605 0 0 425 0 425 -605 0 -605 0 0 -425z m837 319 c-3 -3 -12 -4 -19 -1 -8 3 -5 6 6 6 11 1 17 -2 13 -5z m-47 -14 c-8 -5 -19 -10 -25 -10 -5 0 -3 5 5 10 8 5 20 10 25 10 6 0 3 -5 -5 -10z m-223 -17 c-4 -3 -10 -3 -14 0 -3 4 0 7 7 7 7 0 10 -3 7 -7z m424 -10 c13 -16 12 -17 -3 -4 -10 7 -18 15 -18 17 0 8 8 3 21 -13z m-444 -29 c-3 -3 -12 -4 -19 -1 -8 3 -5 6 6 6 11 1 17 -2 13 -5z m431 -1 c-10 -2 -26 -2 -35 0 -10 3 -2 5 17 5 19 0 27 -2 18 -5z m-73 -13 c-27 -12 -43 -12 -25 0 8 5 22 9 30 9 10 0 8 -3 -5 -9z m122 4 c-3 -3 -12 -4 -19 -1 -8 3 -5 6 6 6 11 1 17 -2 13 -5z m-167 -18 c0 -3 -5 -8 -12 -12 -7 -4 -8 -3 -4 4 7 12 16 16 16 8z m-253 -73 c-4 -3 -10 -3 -14 0 -3 4 0 7 7 7 7 0 10 -3 7 -7z m220 0 c-4 -3 -10 -3 -14 0 -3 4 0 7 7 7 7 0 10 -3 7 -7z m-80 -10 c-4 -3 -10 -3 -14 0 -3 4 0 7 7 7 7 0 10 -3 7 -7z m-624 -30 c-11 -62 -11 -74 4 -69 8 4 11 1 8 -5 -4 -6 1 -20 11 -32 11 -13 5 -10 -12 6 -26 24 -31 34 -27 65 4 41 10 62 17 62 3 0 2 -12 -1 -27z m741 -8 c9 -14 15 -25 13 -25 -2 0 -13 11 -25 25 -12 14 -18 25 -13 25 5 0 16 -11 25 -25z m-39 5 c3 -6 -1 -7 -9 -4 -18 7 -21 14 -7 14 6 0 13 -4 16 -10z m-19 -22 c4 -7 3 -10 -1 -5 -5 4 -20 -3 -34 -15 l-26 -23 24 28 c28 31 28 31 37 15z m-661 -8 c3 -5 4 -10 1 -10 -3 0 -8 5 -11 10 -3 6 -4 10 -1 10 3 0 8 -4 11 -10z m550 -10 c3 -5 4 -10 1 -10 -3 0 -8 5 -11 10 -3 6 -4 10 -1 10 3 0 8 -4 11 -10z m174 -40 c1 -13 0 -13 -9 0 -5 8 -9 24 -9 35 l0 20 9 -20 c5 -11 9 -27 9 -35z m-63 14 c-4 -9 -9 -15 -11 -12 -3 3 -3 13 1 22 4 9 9 15 11 12 3 -3 3 -13 -1 -22z m-66 -8 c0 -2 -8 -10 -17 -17 -16 -13 -17 -12 -4 4 13 16 21 21 21 13z m71 -39 c-8 -8 -11 -7 -11 4 0 20 13 34 18 19 3 -7 -1 -17 -7 -23z m147 -2 c-3 -3 -9 2 -12 12 -6 14 -5 15 5 6 7 -7 10 -15 7 -18z m-171 -21 c-5 -38 -23 -67 -23 -35 0 11 4 17 9 14 5 -3 8 1 6 8 -3 22 1 49 6 49 3 0 4 -16 2 -36z m-603 15 c-4 -7 0 -9 13 -5 23 7 51 -18 33 -29 -6 -4 -9 -1 -8 6 2 6 -3 14 -11 17 -9 3 -11 0 -6 -8 6 -9 3 -9 -14 0 -18 9 -21 30 -5 30 3 0 2 -5 -2 -11z m701 -9 c3 -5 4 -10 1 -10 -3 0 -8 5 -11 10 -3 6 -4 10 -1 10 3 0 8 -4 11 -10z m-188 -22 c-3 -8 -6 -5 -6 6 -1 11 2 17 5 13 3 -3 4 -12 1 -19z m270 0 c-3 -8 -6 -5 -6 6 -1 11 2 17 5 13 3 -3 4 -12 1 -19z m-700 -5 c-4 -3 -10 -3 -14 0 -3 4 0 7 7 7 7 0 10 -3 7 -7z m73 -23 c20 -6 21 -8 5 -8 -11 0 -31 4 -45 8 -20 6 -21 8 -5 8 11 0 31 -4 45 -8z m100 -6 c0 -2 -11 -3 -24 -2 -14 1 -23 5 -20 9 4 7 44 0 44 -7z m70 0 c0 -2 -9 -4 -21 -4 -11 0 -18 4 -14 10 5 8 35 3 35 -6z m53 9 c-7 -2 -21 -2 -30 0 -10 3 -4 5 12 5 17 0 24 -2 18 -5z m334 0 c-4 -3 -10 -3 -14 0 -3 4 0 7 7 7 7 0 10 -3 7 -7z m-190 -20 c-4 -3 -7 0 -7 7 0 7 3 10 7 7 3 -4 3 -10 0 -14z m250 0 c-4 -3 -7 0 -7 7 0 7 3 10 7 7 3 -4 3 -10 0 -14z m-32 -3 c3 -5 4 -10 1 -10 -3 0 -8 5 -11 10 -3 6 -4 10 -1 10 3 0 8 -4 11 -10z m-175 -11 c0 -5 5 -7 12 -3 7 5 8 3 3 -5 -5 -9 -10 -10 -18 -2 -8 8 -20 2 -44 -21 -18 -18 -33 -29 -33 -25 0 8 63 67 73 67 4 0 7 -5 7 -11z m-27 -44 c-3 -9 -8 -14 -10 -11 -3 3 -2 9 2 15 9 16 15 13 8 -4z m212 -15 c3 -5 1 -10 -4 -10 -6 0 -11 5 -11 10 0 6 2 10 4 10 3 0 8 -4 11 -10z m-188 -7 c-4 -3 -10 -3 -14 0 -3 4 0 7 7 7 7 0 10 -3 7 -7z m163 -3 c0 -5 -5 -10 -11 -10 -5 0 -7 5 -4 10 3 6 8 10 11 10 2 0 4 -4 4 -10z m-243 -22 c-3 -8 -6 -5 -6 6 -1 11 2 17 5 13 3 -3 4 -12 1 -19z m77 -40 c-17 -15 -35 -28 -39 -28 -3 0 7 12 24 26 17 14 31 36 32 47 0 21 1 21 8 3 6 -15 0 -26 -25 -48z m171 13 l20 -25 -26 20 c-15 10 -25 23 -22 27 3 5 6 7 7 5 0 -2 10 -14 21 -27z m-248 -8 c-4 -3 -7 0 -7 7 0 7 3 10 7 7 3 -4 3 -10 0 -14z m150 11 c-3 -3 -12 -4 -19 -1 -8 3 -5 6 6 6 11 1 17 -2 13 -5z m50 0 c-3 -3 -12 -4 -19 -1 -8 3 -5 6 6 6 11 1 17 -2 13 -5z m-182 -46 c6 -4 2 -8 -7 -8 -10 0 -18 7 -18 17 0 9 3 12 8 7 4 -5 12 -12 17 -16z m289 -7 c-2 -3 -12 3 -22 13 -16 17 -16 18 5 5 12 -7 20 -15 17 -18z"/>
</g>
<g id="layer107" fill="#ec3d2a" stroke="none">
<path d="M0 425 l0 -425 605 0 605 0 0 425 0 425 -605 0 -605 0 0 -425z m812 309 c-29 -7 -62 -19 -73 -25 -12 -6 -23 -8 -26 -6 -7 8 99 46 127 46 14 0 1 -7 -28 -15z m-229 -21 c-7 -2 -19 -2 -25 0 -7 3 -2 5 12 5 14 0 19 -2 13 -5z m447 -42 c0 -4 -28 -7 -63 -7 -38 0 -75 -7 -96 -17 -23 -11 -30 -12 -22 -3 17 20 96 39 133 32 l32 -6 -25 27 -24 27 33 -23 c17 -12 32 -26 32 -30z m-353 12 c-4 -3 -10 -3 -14 0 -3 4 0 7 7 7 7 0 10 -3 7 -7z m-124 -10 c-7 -2 -21 -2 -30 0 -10 3 -4 5 12 5 17 0 24 -2 18 -5z m75 0 c-10 -2 -28 -2 -40 0 -13 2 -5 4 17 4 22 1 32 -1 23 -4z m-21 -100 c-4 -3 -10 -3 -14 0 -3 4 0 7 7 7 7 0 10 -3 7 -7z m220 0 c-4 -3 -10 -3 -14 0 -3 4 0 7 7 7 7 0 10 -3 7 -7z m-124 -10 c-13 -2 -35 -2 -50 0 -16 2 -5 4 22 4 28 0 40 -2 28 -4z m75 0 c-10 -2 -26 -2 -35 0 -10 3 -2 5 17 5 19 0 27 -2 18 -5z m-655 -30 c-11 -62 -11 -74 4 -69 8 4 11 1 8 -5 -4 -6 1 -20 11 -32 11 -13 5 -10 -12 6 -26 24 -31 34 -27 65 4 41 10 62 17 62 3 0 2 -12 -1 -27z m424 10 c-4 -3 -10 -3 -14 0 -3 4 0 7 7 7 7 0 10 -3 7 -7z m321 -23 c13 -16 21 -30 19 -30 -2 0 -16 14 -30 30 -15 17 -23 30 -19 30 5 0 18 -13 30 -30z m-43 10 c3 -6 -1 -7 -9 -4 -18 7 -21 14 -7 14 6 0 13 -4 16 -10z m-19 -22 c4 -7 3 -10 -1 -5 -5 4 -20 -3 -34 -15 l-26 -23 24 28 c28 31 28 31 37 15z m-661 -8 c3 -5 4 -10 1 -10 -3 0 -8 5 -11 10 -3 6 -4 10 -1 10 3 0 8 -4 11 -10z m550 -10 c3 -5 4 -10 1 -10 -3 0 -8 5 -11 10 -3 6 -4 10 -1 10 3 0 8 -4 11 -10z m174 -40 c1 -13 0 -13 -9 0 -5 8 -9 24 -9 35 l0 20 9 -20 c5 -11 9 -27 9 -35z m-63 14 c-4 -9 -9 -15 -11 -12 -3 3 -3 13 1 22 4 9 9 15 11 12 3 -3 3 -13 -1 -22z m-80 -23 c-9 -10 -21 -32 -26 -47 -6 -23 -8 -25 -9 -8 -1 20 33 74 46 74 3 0 -2 -9 -11 -19z m85 -24 c-8 -8 -11 -7 -11 4 0 20 13 34 18 19 3 -7 -1 -17 -7 -23z m158 -37 c-1 -23 -2 -22 -9 5 -4 17 -11 39 -14 50 -5 13 -2 12 8 -5 8 -14 15 -36 15 -50z m-182 14 c-3 -19 -10 -41 -16 -47 -9 -9 -11 -8 -5 7 6 15 4 17 -6 11 -9 -5 -11 -4 -6 4 4 6 12 9 17 5 6 -3 10 0 8 7 -3 22 1 49 6 49 3 0 4 -16 2 -36z m-603 15 c-4 -7 0 -9 13 -5 23 7 51 -18 33 -29 -6 -4 -9 -1 -8 6 2 6 -3 14 -11 17 -9 3 -11 0 -6 -8 6 -9 3 -9 -14 0 -18 9 -21 30 -5 30 3 0 2 -5 -2 -11z m701 -9 c3 -5 4 -10 1 -10 -3 0 -8 5 -11 10 -3 6 -4 10 -1 10 3 0 8 -4 11 -10z m-618 -27 c-4 -3 -10 -3 -14 0 -3 4 0 7 7 7 7 0 10 -3 7 -7z m73 -23 c20 -6 21 -8 5 -8 -11 0 -31 4 -45 8 -20 6 -21 8 -5 8 11 0 31 -4 45 -8z m100 -6 c0 -2 -11 -3 -24 -2 -14 1 -23 5 -20 9 4 7 44 0 44 -7z m105 6 c-51 -11 -77 -12 -71 -2 2 4 28 8 58 9 52 1 52 1 13 -7z m352 3 c-4 -3 -10 -3 -14 0 -3 4 0 7 7 7 7 0 10 -3 7 -7z m-190 -20 c-4 -3 -7 0 -7 7 0 7 3 10 7 7 3 -4 3 -10 0 -14z m250 0 c-4 -3 -7 0 -7 7 0 7 3 10 7 7 3 -4 3 -10 0 -14z m-32 -3 c3 -5 4 -10 1 -10 -3 0 -8 5 -11 10 -3 6 -4 10 -1 10 3 0 8 -4 11 -10z m-175 -11 c0 -5 5 -7 12 -3 7 4 8 3 4 -5 -6 -9 -11 -9 -21 -1 -9 8 -20 2 -44 -25 -25 -29 -31 -45 -31 -80 0 -32 4 -45 14 -45 24 0 76 50 77 73 0 21 1 21 8 3 6 -15 0 -26 -23 -46 -39 -34 -71 -51 -80 -43 -10 11 -7 93 5 116 12 23 58 66 72 67 4 0 7 -5 7 -11z m231 -36 c13 -16 12 -17 -3 -4 -10 7 -18 15 -18 17 0 8 8 3 21 -13z m-258 -8 c-3 -9 -8 -14 -10 -11 -3 3 -2 9 2 15 9 16 15 13 8 -4z m217 -26 c0 -6 -4 -7 -10 -4 -5 3 -10 11 -10 16 0 6 5 7 10 4 6 -3 10 -11 10 -16z m-193 4 c-4 -3 -10 -3 -14 0 -3 4 0 7 7 7 7 0 10 -3 7 -7z m163 -3 c0 -5 -5 -10 -11 -10 -5 0 -7 5 -4 10 3 6 8 10 11 10 2 0 4 -4 4 -10z m75 -91 c18 -1 18 -2 2 -6 -10 -3 -34 8 -55 24 -30 22 -47 28 -87 27 -41 -1 -42 0 -10 3 22 2 44 8 48 12 5 5 25 -7 45 -25 20 -19 46 -34 57 -35z"/>
</g>
<g id="layer108" fill="#d44f34" stroke="none">
<path d="M0 425 l0 -425 605 0 605 0 0 425 0 425 -605 0 -605 0 0 -425z m812 309 c-29 -7 -62 -19 -73 -25 -12 -6 -23 -8 -26 -6 -7 8 99 46 127 46 14 0 1 -7 -28 -15z m-229 -21 c-7 -2 -19 -2 -25 0 -7 3 -2 5 12 5 14 0 19 -2 13 -5z m447 -42 c0 -4 -28 -7 -63 -7 -38 0 -75 -7 -96 -17 -23 -11 -30 -12 -22 -3 17 20 96 39 133 32 l32 -6 -25 27 -24 27 33 -23 c17 -12 32 -26 32 -30z m-353 12 c-4 -3 -10 -3 -14 0 -3 4 0 7 7 7 7 0 10 -3 7 -7z m-124 -10 c-7 -2 -21 -2 -30 0 -10 3 -4 5 12 5 17 0 24 -2 18 -5z m75 0 c-10 -2 -28 -2 -40 0 -13 2 -5 4 17 4 22 1 32 -1 23 -4z m-475 -130 c-2 -74 -1 -79 25 -100 23 -19 25 -24 12 -34 -13 -9 -12 -10 3 -5 9 3 31 -3 48 -13 30 -18 30 -19 6 -18 -14 1 -23 6 -19 11 3 5 -2 6 -12 3 -10 -4 -24 1 -36 13 -11 11 -20 17 -20 13 0 -4 -13 5 -28 20 -26 25 -28 31 -24 89 4 67 15 98 35 98 9 0 11 -22 10 -77z m454 30 c-4 -3 -10 -3 -14 0 -3 4 0 7 7 7 7 0 10 -3 7 -7z m220 0 c-4 -3 -10 -3 -14 0 -3 4 0 7 7 7 7 0 10 -3 7 -7z m-124 -10 c-13 -2 -35 -2 -50 0 -16 2 -5 4 22 4 28 0 40 -2 28 -4z m75 0 c-10 -2 -26 -2 -35 0 -10 3 -2 5 17 5 19 0 27 -2 18 -5z m-231 -20 c-4 -3 -10 -3 -14 0 -3 4 0 7 7 7 7 0 10 -3 7 -7z m323 -25 c13 -18 17 -27 8 -20 -15 12 -16 9 -15 -31 1 -25 6 -43 11 -40 5 4 6 1 2 -5 -3 -6 -2 -13 3 -17 6 -3 7 -13 4 -22 -5 -12 -3 -14 7 -8 8 5 11 4 7 -2 -6 -10 37 -66 45 -58 2 2 4 -5 4 -15 0 -23 -15 -26 -37 -8 -13 11 -54 96 -75 153 -5 16 -10 7 -21 -36 -8 -30 -26 -68 -39 -85 -14 -16 -22 -23 -19 -16 4 7 1 20 -6 28 -10 12 -10 15 1 12 7 -2 15 3 18 11 3 9 0 11 -8 6 -9 -5 -11 -4 -6 4 4 6 11 9 16 6 4 -3 11 2 14 11 3 8 2 13 -3 10 -5 -4 -7 3 -4 15 4 14 8 17 13 9 4 -7 8 11 8 39 l0 52 -27 -23 -26 -23 24 27 c13 15 27 25 32 23 4 -3 10 -1 14 5 3 5 0 10 -7 11 -7 0 -4 4 7 9 29 13 29 13 55 -22z m-175 -28 c3 -5 4 -10 1 -10 -3 0 -8 5 -11 10 -3 6 -4 10 -1 10 3 0 8 -4 11 -10z m31 -49 c-9 -10 -21 -32 -26 -47 -6 -23 -8 -25 -9 -8 -1 20 33 74 46 74 3 0 -2 -9 -11 -19z m243 -61 c-1 -23 -2 -22 -9 5 -4 17 -11 39 -14 50 -5 13 -2 12 8 -5 8 -14 15 -36 15 -50z m-544 -16 c17 -3 59 -6 95 -6 58 -1 60 -2 25 -8 -22 -4 -83 -6 -135 -5 -128 3 -132 4 -125 15 4 7 12 7 25 0 27 -14 40 -12 40 6 0 12 6 15 23 10 12 -4 36 -9 52 -12z m282 -31 c-4 -3 -7 0 -7 7 0 7 3 10 7 7 3 -4 3 -10 0 -14z m250 0 c-4 -3 -7 0 -7 7 0 7 3 10 7 7 3 -4 3 -10 0 -14z m-211 -19 c-4 -9 -2 -22 4 -29 9 -11 7 -12 -9 -8 -13 3 -21 1 -21 -8 0 -7 -3 -9 -6 -6 -4 4 -1 13 6 22 7 9 8 15 2 15 -6 0 -20 -12 -31 -26 -25 -32 -30 -114 -7 -114 23 0 76 50 76 71 0 10 4 19 9 19 32 0 -21 -70 -75 -98 -28 -15 -34 -7 -34 45 0 52 12 79 49 110 31 27 45 29 37 7z m235 -31 c13 -16 12 -17 -3 -4 -10 7 -18 15 -18 17 0 8 8 3 21 -13z m-41 -35 c0 -7 -4 -7 -12 0 -9 7 -17 6 -26 -4 -11 -12 -7 -20 25 -49 21 -19 47 -35 58 -36 18 -1 18 -2 2 -6 -10 -3 -34 8 -55 24 -30 22 -47 28 -87 27 -45 -1 -46 -1 -7 3 23 2 42 9 42 14 0 6 8 21 18 34 12 17 20 20 30 13 6 -6 12 -15 12 -20z m-193 5 c-4 -3 -10 -3 -14 0 -3 4 0 7 7 7 7 0 10 -3 7 -7z"/>
<path d="M113 463 c4 -3 10 -3 14 0 3 4 0 7 -7 7 -7 0 -10 -3 -7 -7z"/>
<path d="M135 440 c3 -5 8 -10 11 -10 3 0 2 5 -1 10 -3 6 -8 10 -11 10 -3 0 -2 -4 1 -10z"/>
<path d="M840 530 c0 -7 3 -10 7 -7 3 4 3 10 0 14 -4 3 -7 0 -7 -7z"/>
</g>
<g id="layer109" fill="#b46954" stroke="none">
<path d="M0 425 l0 -425 605 0 605 0 0 425 0 425 -605 0 -605 0 0 -425z m812 309 c-29 -7 -62 -19 -73 -25 -12 -6 -23 -8 -26 -6 -7 8 99 46 127 46 14 0 1 -7 -28 -15z m-449 -11 c-13 -2 -33 -2 -45 0 -13 2 -3 4 22 4 25 0 35 -2 23 -4z m-136 -10 c-4 -3 -10 -3 -14 0 -3 4 0 7 7 7 7 0 10 -3 7 -7z m304 -11 c-7 -2 -18 1 -23 6 -8 8 -4 9 13 5 13 -4 18 -8 10 -11z m52 11 c-7 -2 -19 -2 -25 0 -7 3 -2 5 12 5 14 0 19 -2 13 -5z m447 -42 c0 -4 -28 -7 -63 -7 -38 0 -75 -7 -96 -17 -23 -11 -30 -12 -22 -3 17 20 96 39 133 32 l32 -6 -25 27 -24 27 33 -23 c17 -12 32 -26 32 -30z m-533 12 c-4 -3 -10 -3 -14 0 -3 4 0 7 7 7 7 0 10 -3 7 -7z m180 0 c-4 -3 -10 -3 -14 0 -3 4 0 7 7 7 7 0 10 -3 7 -7z m-124 -10 c-7 -2 -21 -2 -30 0 -10 3 -4 5 12 5 17 0 24 -2 18 -5z m75 0 c-10 -2 -28 -2 -40 0 -13 2 -5 4 17 4 22 1 32 -1 23 -4z m-178 -53 c-8 -5 -19 -10 -25 -10 -5 0 -3 5 5 10 8 5 20 10 25 10 6 0 3 -5 -5 -10z m-297 -77 c-2 -74 -1 -79 25 -100 21 -18 24 -25 14 -31 -11 -7 -10 -10 3 -15 9 -4 13 -3 10 3 -9 14 2 12 30 -6 13 -9 45 -22 70 -29 40 -13 45 -12 45 2 0 12 5 13 23 7 12 -4 70 -8 129 -8 78 0 102 -3 85 -10 -32 -14 -287 -13 -317 0 -14 7 -28 12 -33 13 -40 5 -138 86 -130 107 3 9 0 14 -7 12 -7 -2 -14 3 -15 10 -2 7 -1 8 2 2 10 -21 23 2 23 41 0 45 14 79 33 79 9 0 11 -22 10 -77z m244 60 c-4 -3 -10 -3 -14 0 -3 4 0 7 7 7 7 0 10 -3 7 -7z m210 -30 c-4 -3 -10 -3 -14 0 -3 4 0 7 7 7 7 0 10 -3 7 -7z m220 0 c-4 -3 -10 -3 -14 0 -3 4 0 7 7 7 7 0 10 -3 7 -7z m-124 -10 c-13 -2 -35 -2 -50 0 -16 2 -5 4 22 4 28 0 40 -2 28 -4z m75 0 c-10 -2 -26 -2 -35 0 -10 3 -2 5 17 5 19 0 27 -2 18 -5z m86 -38 c15 -20 21 -34 14 -33 -14 3 -13 -38 3 -80 5 -13 6 -28 3 -34 -4 -7 -2 -8 4 -4 7 4 12 2 12 -3 0 -6 19 -30 43 -54 23 -23 38 -39 33 -35 -17 13 -26 9 -19 -9 6 -15 3 -15 -26 3 -29 19 -65 81 -97 169 -5 16 -10 8 -21 -36 -8 -30 -25 -68 -39 -85 -18 -22 -23 -24 -18 -9 5 17 4 17 -5 4 -11 -17 6 -69 22 -69 4 0 7 -6 7 -14 0 -8 14 -16 38 -18 47 -6 53 -4 77 32 14 21 23 26 32 18 18 -14 16 -29 -2 -22 -9 4 -18 -1 -21 -11 -8 -19 50 -73 81 -76 18 -1 18 -2 2 -6 -10 -3 -34 7 -54 22 -30 24 -46 28 -105 29 -56 1 -72 -2 -86 -17 -22 -24 -68 -48 -76 -40 -11 12 -6 94 8 121 8 15 24 34 36 42 12 8 28 28 36 43 9 16 20 25 26 21 6 -4 8 -3 5 3 -3 5 1 33 10 62 17 60 12 72 -19 45 -12 -10 -4 2 17 29 22 26 42 47 46 47 4 0 19 -16 33 -35z m-317 18 c-4 -3 -10 -3 -14 0 -3 4 0 7 7 7 7 0 10 -3 7 -7z m148 -53 c3 -5 4 -10 1 -10 -3 0 -8 5 -11 10 -3 6 -4 10 -1 10 3 0 8 -4 11 -10z m31 -49 c-9 -10 -21 -32 -26 -47 -6 -23 -8 -25 -9 -8 -1 20 33 74 46 74 3 0 -2 -9 -11 -19z m-61 -1 c3 -5 4 -10 1 -10 -3 0 -8 5 -11 10 -3 6 -4 10 -1 10 3 0 8 -4 11 -10z m304 -60 c-1 -23 -2 -22 -9 5 -4 17 -11 39 -14 50 -5 13 -2 12 8 -5 8 -14 15 -36 15 -50z m-319 6 c0 -3 -5 -8 -12 -12 -7 -4 -8 -3 -4 4 7 12 16 16 16 8z m57 -53 c-4 -3 -7 0 -7 7 0 7 3 10 7 7 3 -4 3 -10 0 -14z m250 0 c-4 -3 -7 0 -7 7 0 7 3 10 7 7 3 -4 3 -10 0 -14z"/>
</g>
<g id="layer110" fill="#d86636" stroke="none">
<path d="M0 425 l0 -425 605 0 605 0 0 425 0 425 -605 0 -605 0 0 -425z m820 311 c-25 -7 -73 -25 -107 -39 -49 -21 -78 -27 -135 -27 -40 0 -78 4 -85 8 -6 4 30 7 80 8 81 0 100 4 162 32 39 17 84 31 100 31 26 0 24 -2 -15 -13z m-457 -13 c-13 -2 -33 -2 -45 0 -13 2 -3 4 22 4 25 0 35 -2 23 -4z m-136 -10 c-4 -3 -10 -3 -14 0 -3 4 0 7 7 7 7 0 10 -3 7 -7z m304 -11 c-7 -2 -18 1 -23 6 -8 8 -4 9 13 5 13 -4 18 -8 10 -11z m52 11 c-7 -2 -19 -2 -25 0 -7 3 -2 5 12 5 14 0 19 -2 13 -5z m447 -43 c0 -5 -26 -8 -59 -8 -36 0 -71 -6 -91 -16 -39 -19 -43 -20 -35 -6 13 21 80 42 123 37 l43 -5 -23 26 -23 26 33 -23 c17 -12 32 -26 32 -31z m-535 -30 c3 -5 1 -10 -4 -10 -6 0 -11 5 -11 10 0 6 2 10 4 10 3 0 8 -4 11 -10z m-45 -20 c-8 -5 -19 -10 -25 -10 -5 0 -3 5 5 10 8 5 20 10 25 10 6 0 3 -5 -5 -10z m-297 -77 c-2 -74 -1 -79 25 -100 21 -18 24 -25 14 -31 -11 -7 -10 -10 3 -15 9 -4 13 -3 10 3 -9 14 2 12 30 -6 13 -9 45 -22 70 -29 40 -13 45 -12 45 2 0 12 5 13 23 7 12 -4 70 -8 129 -8 78 0 102 -3 85 -10 -12 -5 -85 -10 -162 -10 -119 -1 -145 2 -168 17 -15 9 -27 15 -27 12 0 -3 -15 2 -32 11 -47 23 -97 74 -91 91 3 8 0 13 -7 11 -7 -2 -14 3 -15 10 -2 7 -1 8 2 2 10 -21 23 2 23 41 0 45 14 79 33 79 9 0 11 -22 10 -77z m244 60 c-4 -3 -10 -3 -14 0 -3 4 0 7 7 7 7 0 10 -3 7 -7z m503 1 c0 -8 -67 -34 -87 -34 -10 1 5 9 32 19 28 10 51 19 53 20 1 0 2 -1 2 -5z m-243 -31 c35 -3 63 -9 63 -13 0 -10 -128 8 -148 20 -15 10 -15 11 3 5 11 -3 48 -9 82 -12z m-102 -3 c3 -5 4 -10 1 -10 -3 0 -8 5 -11 10 -3 6 -4 10 -1 10 3 0 8 -4 11 -10z m223 -7 c-10 -2 -26 -2 -35 0 -10 3 -2 5 17 5 19 0 27 -2 18 -5z m86 -38 c15 -20 21 -34 14 -33 -14 3 -13 -38 3 -80 5 -13 6 -28 3 -34 -4 -6 -3 -8 3 -5 5 3 17 -7 27 -24 18 -31 32 -37 39 -16 2 6 3 4 1 -7 -1 -10 5 -26 14 -35 10 -9 13 -13 8 -9 -17 13 -26 9 -19 -9 6 -15 3 -15 -26 3 -29 19 -65 81 -97 169 -5 16 -10 8 -21 -36 -8 -30 -25 -68 -39 -85 -18 -22 -23 -24 -18 -9 5 17 4 17 -5 4 -11 -17 6 -69 22 -69 4 0 7 -6 7 -14 0 -8 14 -16 38 -18 47 -6 53 -4 77 32 14 21 23 26 32 18 18 -14 16 -29 -2 -22 -8 4 -17 -1 -21 -10 -7 -18 24 -49 71 -71 26 -12 27 -14 8 -15 -12 0 -36 12 -53 27 -28 23 -41 27 -101 26 -56 0 -74 -4 -92 -20 -29 -27 -63 -44 -71 -36 -11 12 -6 94 8 121 8 15 24 34 36 42 12 8 28 28 36 43 9 16 20 25 26 21 6 -4 8 -3 5 3 -3 5 1 33 10 62 17 60 12 72 -19 45 -12 -10 -4 2 17 29 22 26 42 47 46 47 4 0 19 -16 33 -35z m-317 18 c-4 -3 -10 -3 -14 0 -3 4 0 7 7 7 7 0 10 -3 7 -7z m58 -3 c3 -5 -1 -10 -9 -10 -9 0 -16 5 -16 10 0 6 4 10 9 10 6 0 13 -4 16 -10z m90 -50 c3 -5 4 -10 1 -10 -3 0 -8 5 -11 10 -3 6 -4 10 -1 10 3 0 8 -4 11 -10z m33 -47 c-9 -10 -20 -31 -26 -48 -8 -24 -11 -26 -11 -9 -1 20 33 74 46 74 3 0 -1 -8 -9 -17z m-63 -3 c3 -5 4 -10 1 -10 -3 0 -8 5 -11 10 -3 6 -4 10 -1 10 3 0 8 -4 11 -10z m304 -60 c0 -18 -4 -12 -15 20 -17 56 -17 62 1 30 8 -14 14 -36 14 -50z m-319 6 c0 -3 -5 -8 -12 -12 -7 -4 -8 -3 -4 4 7 12 16 16 16 8z m57 -53 c-4 -3 -7 0 -7 7 0 7 3 10 7 7 3 -4 3 -10 0 -14z"/>
</g>
<g id="layer111" fill="#a76360" stroke="none">
<path d="M0 425 l0 -425 605 0 605 0 0 425 0 425 -605 0 -605 0 0 -425z m820 311 c-25 -7 -73 -25 -107 -39 -50 -22 -77 -27 -135 -26 -40 1 -83 4 -96 7 -13 4 23 7 80 7 94 1 109 3 173 32 39 18 84 32 100 32 26 0 24 -2 -15 -13z m-543 -13 c-4 -3 -10 -3 -14 0 -3 4 0 7 7 7 7 0 10 -3 7 -7z m86 0 c-13 -2 -35 -2 -50 0 -16 2 -5 4 22 4 28 0 40 -2 28 -4z m-143 -13 c-34 -11 -60 -11 -35 0 11 5 29 8 40 8 16 0 15 -2 -5 -8z m349 -2 c-11 -5 -49 -4 -83 1 l-61 8 83 -1 c53 0 75 -3 61 -8z m461 -38 c0 -5 -26 -8 -59 -8 -36 0 -71 -6 -91 -16 -39 -19 -43 -20 -35 -6 13 21 80 42 123 37 l43 -5 -23 26 -23 26 33 -23 c17 -12 32 -26 32 -31z m-880 21 c0 -5 -7 -12 -16 -15 -14 -5 -15 -4 -4 9 14 17 20 19 20 6z m-49 -44 c-10 -9 -11 -8 -5 6 3 10 9 15 12 12 3 -3 0 -11 -7 -18z m365 8 c4 -8 10 -13 14 -10 5 3 11 1 14 -4 3 -5 -5 -12 -18 -15 -13 -3 -32 -9 -43 -12 -15 -5 -15 -4 2 7 29 18 29 17 15 34 -9 11 -9 15 -1 15 6 0 14 -7 17 -15z m-313 -112 c-2 -74 -1 -79 25 -100 21 -18 24 -25 14 -31 -11 -7 -10 -10 3 -15 9 -4 13 -3 10 3 -9 14 2 12 30 -6 13 -9 45 -22 70 -29 40 -13 45 -12 45 2 0 12 5 13 23 7 12 -4 70 -8 129 -8 78 0 102 -3 85 -10 -12 -5 -85 -10 -162 -10 -119 -1 -145 2 -168 17 -15 9 -27 15 -27 12 0 -3 -15 2 -32 11 -47 23 -97 74 -91 91 3 8 0 13 -7 11 -7 -2 -14 3 -15 10 -2 7 -1 8 2 2 10 -21 23 2 23 41 0 45 14 79 33 79 9 0 11 -22 10 -77z m261 58 c4 -5 -3 -7 -14 -4 -23 6 -26 13 -6 13 8 0 17 -4 20 -9z m486 3 c0 -8 -67 -34 -87 -34 -10 1 5 9 32 19 28 10 51 19 53 20 1 0 2 -1 2 -5z m-821 -46 c-1 -35 -2 -38 -8 -18 -7 23 -4 60 5 60 2 0 4 -19 3 -42z m238 35 c-4 -3 -10 -3 -14 0 -3 4 0 7 7 7 7 0 10 -3 7 -7z m340 -20 c35 -3 63 -9 63 -13 0 -10 -128 8 -148 20 -15 10 -15 11 3 5 11 -3 48 -9 82 -12z m-387 -8 c-7 -9 -15 -13 -19 -10 -3 3 1 10 9 15 21 14 24 12 10 -5z m285 5 c3 -5 4 -10 1 -10 -3 0 -8 5 -11 10 -3 6 -4 10 -1 10 3 0 8 -4 11 -10z m223 -7 c-10 -2 -26 -2 -35 0 -10 3 -2 5 17 5 19 0 27 -2 18 -5z m86 -38 c15 -20 21 -34 14 -33 -14 3 -13 -38 3 -80 5 -13 6 -28 3 -34 -4 -6 -3 -8 3 -5 5 3 17 -7 27 -24 18 -31 32 -37 39 -16 2 6 3 4 1 -7 -1 -10 5 -26 14 -35 10 -9 13 -13 8 -9 -17 13 -26 9 -19 -9 6 -15 3 -15 -26 3 -29 19 -65 81 -97 169 -5 16 -10 8 -21 -36 -8 -30 -25 -68 -39 -85 -18 -22 -23 -24 -18 -9 5 17 4 17 -5 4 -11 -17 6 -69 22 -69 4 0 7 -6 7 -14 0 -8 14 -16 38 -18 47 -6 53 -4 77 32 14 21 23 26 32 18 18 -14 16 -29 -2 -22 -8 4 -17 -1 -21 -10 -7 -18 24 -49 71 -71 26 -12 27 -14 8 -15 -12 0 -36 12 -53 27 -28 23 -41 27 -101 26 -56 0 -74 -4 -92 -20 -29 -27 -63 -44 -71 -36 -11 12 -6 94 8 121 8 15 24 34 36 42 12 8 28 28 36 43 9 16 20 25 26 21 6 -4 8 -3 5 3 -3 5 1 33 10 62 17 60 12 72 -19 45 -12 -10 -4 2 17 29 22 26 42 47 46 47 4 0 19 -16 33 -35z m-317 18 c-4 -3 -10 -3 -14 0 -3 4 0 7 7 7 7 0 10 -3 7 -7z m58 -3 c3 -5 -1 -10 -9 -10 -9 0 -16 5 -16 10 0 6 4 10 9 10 6 0 13 -4 16 -10z m-358 -17 c-4 -3 -7 0 -7 7 0 7 3 10 7 7 3 -4 3 -10 0 -14z m18 -33 c10 -11 16 -20 13 -20 -3 0 -13 9 -23 20 -10 11 -16 20 -13 20 3 0 13 -9 23 -20z m429 1 c3 -4 -2 -17 -10 -27 -15 -18 -15 -18 -11 3 3 15 1 20 -9 16 -8 -3 -14 0 -14 6 0 13 36 15 44 2z m-368 -39 c-10 -2 -22 0 -28 6 -6 6 0 7 19 4 21 -5 23 -7 9 -10z m201 12 c-3 -3 -12 -4 -19 -1 -8 3 -5 6 6 6 11 1 17 -2 13 -5z m-60 -10 c-3 -3 -12 -4 -19 -1 -8 3 -5 6 6 6 11 1 17 -2 13 -5z m261 -11 c-9 -10 -20 -31 -26 -48 -8 -24 -11 -26 -11 -9 -1 20 33 74 46 74 3 0 -1 -8 -9 -17z m-320 0 c-10 -2 -26 -2 -35 0 -10 3 -2 5 17 5 19 0 27 -2 18 -5z m257 -3 c3 -5 4 -10 1 -10 -3 0 -8 5 -11 10 -3 6 -4 10 -1 10 3 0 8 -4 11 -10z m304 -60 c0 -18 -4 -12 -15 20 -17 56 -17 62 1 30 8 -14 14 -36 14 -50z m-324 0 c-3 -5 -12 -10 -18 -10 -7 0 -6 4 3 10 19 12 23 12 15 0z m62 -47 c-4 -3 -7 0 -7 7 0 7 3 10 7 7 3 -4 3 -10 0 -14z"/>
<path d="M691 274 c-14 -18 -21 -41 -21 -70 0 -52 14 -56 59 -18 33 28 42 64 15 64 -14 0 -15 2 -3 17 13 15 12 15 -8 4 -25 -13 -31 -3 -11 17 8 8 9 12 1 12 -6 0 -21 -12 -32 -26z"/>
</g>
<g id="layer112" fill="#f3542a" stroke="none">
<path d="M0 425 l0 -425 605 0 605 0 0 425 0 425 -605 0 -605 0 0 -425z m943 312 c35 -15 97 -64 97 -77 0 -4 -18 -4 -41 0 -42 8 -117 -4 -134 -21 -11 -11 -25 -12 -25 0 0 17 91 43 131 38 35 -5 38 -3 28 10 -23 27 -88 53 -134 53 -30 0 -76 -12 -131 -35 -71 -30 -95 -35 -157 -34 -39 1 -82 4 -95 7 -13 4 23 7 80 7 94 1 109 3 173 32 78 36 152 43 208 20z m-666 -14 c-4 -3 -10 -3 -14 0 -3 4 0 7 7 7 7 0 10 -3 7 -7z m86 0 c-13 -2 -35 -2 -50 0 -16 2 -5 4 22 4 28 0 40 -2 28 -4z m-143 -13 c-34 -11 -60 -11 -35 0 11 5 29 8 40 8 16 0 15 -2 -5 -8z m354 -2 c-17 -4 -57 -4 -90 1 -58 8 -57 8 31 8 64 -1 81 -3 59 -9z m-424 -17 c0 -5 -7 -12 -16 -15 -14 -5 -15 -4 -4 9 14 17 20 19 20 6z m-49 -44 c-10 -9 -11 -8 -5 6 3 10 9 15 12 12 3 -3 0 -11 -7 -18z m365 8 c4 -8 10 -13 14 -10 5 3 11 1 14 -4 3 -5 -5 -12 -18 -15 -13 -3 -32 -9 -43 -12 -15 -5 -15 -4 2 7 29 18 29 17 15 34 -9 11 -9 15 -1 15 6 0 14 -7 17 -15z m-313 -112 c-2 -74 -1 -79 25 -100 21 -18 24 -25 14 -31 -11 -7 -10 -10 3 -15 9 -4 13 -3 10 3 -9 14 2 12 30 -6 13 -9 45 -22 70 -29 40 -13 45 -12 45 2 0 12 5 13 23 7 12 -4 70 -8 129 -8 78 0 102 -3 85 -10 -12 -5 -85 -10 -162 -10 -119 -1 -145 2 -168 17 -15 9 -27 15 -27 12 0 -3 -15 2 -32 11 -47 23 -97 74 -91 91 3 8 0 13 -7 11 -7 -2 -14 3 -15 10 -2 7 -1 8 2 2 10 -21 23 2 23 41 0 45 14 79 33 79 9 0 11 -22 10 -77z m302 36 c33 -16 49 -27 35 -23 -29 8 -119 54 -105 54 6 0 37 -14 70 -31z m420 10 c-22 -10 -49 -18 -60 -18 -11 0 3 8 30 18 66 24 80 24 30 0z m-796 -31 c-1 -35 -2 -38 -8 -18 -7 23 -4 60 5 60 2 0 4 -19 3 -42z m238 35 c-4 -3 -10 -3 -14 0 -3 4 0 7 7 7 7 0 10 -3 7 -7z m340 -20 c35 -3 63 -9 63 -13 0 -10 -128 8 -148 20 -15 10 -15 11 3 5 11 -3 48 -9 82 -12z m-387 -8 c-7 -9 -15 -13 -19 -10 -3 3 1 10 9 15 21 14 24 12 10 -5z m285 5 c3 -5 4 -10 1 -10 -3 0 -8 5 -11 10 -3 6 -4 10 -1 10 3 0 8 -4 11 -10z m223 -7 c-10 -2 -26 -2 -35 0 -10 3 -2 5 17 5 19 0 27 -2 18 -5z m117 -67 c70 -69 83 -100 67 -152 -9 -31 -8 -37 14 -59 13 -13 24 -30 24 -37 -1 -7 -8 -1 -16 15 -8 15 -19 27 -25 27 -6 0 -6 -8 2 -21 10 -19 8 -19 -26 4 -34 23 -68 81 -101 172 -5 16 -10 8 -21 -36 -8 -30 -25 -68 -39 -85 -18 -22 -23 -24 -18 -9 5 17 4 17 -5 4 -11 -17 6 -69 22 -69 4 0 7 -6 7 -14 0 -8 14 -16 38 -18 47 -6 53 -4 77 32 14 21 23 26 32 18 18 -14 16 -29 -2 -22 -23 9 -30 -25 -9 -42 42 -33 65 -46 70 -41 4 3 10 21 15 39 8 30 8 30 5 -10 -3 -24 -7 -46 -9 -49 -7 -6 -47 15 -74 40 -18 16 -36 20 -85 20 -53 0 -71 -5 -112 -31 -28 -18 -54 -32 -58 -32 -4 0 -8 28 -8 61 0 58 2 63 38 98 22 20 44 46 51 59 7 12 17 20 23 16 6 -4 8 -3 5 3 -3 5 1 33 10 62 8 29 12 55 9 59 -4 3 -26 -13 -49 -36 -38 -38 -42 -47 -41 -88 1 -27 -2 -40 -7 -32 -14 21 -10 61 9 89 16 24 113 127 120 128 2 1 32 -28 67 -63z m-348 48 c-3 -3 -12 -4 -19 -1 -8 3 -5 6 6 6 11 1 17 -2 13 -5z m63 -4 c12 -8 11 -10 -7 -10 -13 0 -23 5 -23 10 0 13 11 13 30 0z m-363 -17 c-4 -3 -7 0 -7 7 0 7 3 10 7 7 3 -4 3 -10 0 -14z m18 -33 c10 -11 16 -20 13 -20 -3 0 -13 9 -23 20 -10 11 -16 20 -13 20 3 0 13 -9 23 -20z m428 -17 c-19 -28 -27 -30 -20 -4 3 14 1 18 -9 14 -8 -3 -14 0 -14 6 0 6 13 10 29 9 28 -2 28 -3 14 -25z m-367 -21 c-10 -2 -22 0 -28 6 -6 6 0 7 19 4 21 -5 23 -7 9 -10z m201 12 c-3 -3 -12 -4 -19 -1 -8 3 -5 6 6 6 11 1 17 -2 13 -5z m-60 -10 c-3 -3 -12 -4 -19 -1 -8 3 -5 6 6 6 11 1 17 -2 13 -5z m-59 -11 c-10 -2 -26 -2 -35 0 -10 3 -2 5 17 5 19 0 27 -2 18 -5z m257 -3 c3 -5 4 -10 1 -10 -3 0 -8 5 -11 10 -3 6 -4 10 -1 10 3 0 8 -4 11 -10z m-20 -60 c-3 -5 -12 -10 -18 -10 -7 0 -6 4 3 10 19 12 23 12 15 0z"/>
<path d="M866 479 c3 -19 9 -47 14 -63 6 -15 7 -33 3 -39 -3 -5 -2 -7 4 -4 5 3 17 -7 27 -24 22 -38 32 -37 40 5 9 45 -4 73 -52 120 l-41 39 5 -34z"/>
<path d="M905 320 c3 -5 8 -10 11 -10 3 0 2 5 -1 10 -3 6 -8 10 -11 10 -3 0 -2 -4 1 -10z"/>
<path d="M691 274 c-14 -18 -21 -41 -21 -70 0 -52 14 -56 59 -18 37 31 43 69 10 61 -20 -5 -20 -5 -2 16 l18 21 -30 -19 -30 -18 18 26 c23 35 5 35 -22 1z"/>
</g>
<g id="layer113" fill="#dc614a" stroke="none">
<path d="M0 425 l0 -425 605 0 605 0 0 425 0 425 -605 0 -605 0 0 -425z m943 312 c35 -15 97 -64 97 -77 0 -4 -18 -4 -41 0 -42 8 -117 -4 -134 -21 -11 -11 -25 -12 -25 0 0 17 91 43 131 38 35 -5 38 -3 28 10 -23 27 -88 53 -134 53 -30 0 -76 -12 -133 -36 -83 -34 -91 -36 -172 -31 -47 3 -98 9 -115 12 l-30 6 28 -16 c15 -9 27 -20 27 -25 0 -6 3 -9 8 -9 30 5 19 -6 -23 -21 l-50 -18 55 -26 c30 -14 44 -24 30 -20 -14 3 -41 15 -60 26 -65 38 -159 39 -206 3 -33 -25 -50 -70 -40 -102 11 -32 77 -67 137 -71 66 -5 210 34 187 50 -15 11 13 6 46 -8 13 -5 17 -4 13 3 -6 9 21 19 71 25 6 1 12 5 12 10 0 4 13 7 29 6 28 -2 28 -3 13 -26 -11 -18 -17 -20 -23 -10 -7 10 -9 10 -10 -2 -8 -81 -10 -85 -66 -101 -68 -20 -299 -19 -333 1 -25 14 -31 16 -51 19 -5 0 -7 5 -4 11 4 6 -1 7 -11 3 -13 -5 -15 -3 -9 7 6 9 4 11 -4 5 -16 -9 -81 52 -75 70 3 7 0 16 -7 21 -8 5 -10 3 -4 -6 5 -8 4 -11 -3 -6 -11 7 -28 73 -23 91 1 5 3 17 4 27 1 9 6 16 11 15 6 -1 11 8 12 21 1 12 5 26 9 30 5 4 5 -1 2 -10 -8 -24 -4 -23 19 4 12 13 13 18 4 13 -13 -8 -13 -6 -1 8 7 9 18 14 23 11 6 -4 13 -2 17 5 13 20 104 30 221 23 63 -3 138 -6 165 -5 38 1 44 -1 25 -7 -14 -4 -37 -8 -52 -9 -16 -1 -28 -6 -28 -12 0 -8 25 -10 83 -7 63 4 98 13 152 36 78 35 153 41 208 19z m-68 -148 c-22 -10 -49 -18 -60 -18 -11 0 3 8 30 18 66 24 80 24 30 0z m-558 4 c-4 -3 -10 -3 -14 0 -3 4 0 7 7 7 7 0 10 -3 7 -7z m340 -20 c35 -3 63 -9 63 -13 0 -10 -128 8 -148 20 -15 10 -15 11 3 5 11 -3 48 -9 82 -12z m-389 -10 c-6 -7 -12 -13 -13 -13 -2 0 -5 6 -8 13 -3 7 3 13 14 13 13 0 15 -3 7 -13z m287 7 c3 -5 4 -10 1 -10 -3 0 -8 5 -11 10 -3 6 -4 10 -1 10 3 0 8 -4 11 -10z m223 -7 c-10 -2 -26 -2 -35 0 -10 3 -2 5 17 5 19 0 27 -2 18 -5z m117 -67 c70 -69 83 -100 67 -152 -9 -31 -8 -37 14 -59 13 -13 24 -30 24 -37 -1 -7 -8 -1 -16 15 -18 33 -40 38 -23 5 9 -19 9 -21 -2 -11 -18 18 -30 16 -23 -2 5 -11 2 -13 -10 -9 -24 9 -32 -24 -10 -42 42 -33 65 -46 70 -41 4 3 10 21 15 39 8 30 8 30 5 -10 -3 -24 -7 -46 -9 -49 -7 -6 -47 15 -74 40 -18 16 -36 20 -85 20 -53 0 -71 -5 -112 -31 -28 -18 -54 -32 -58 -32 -4 0 -8 26 -8 58 0 56 19 102 41 102 6 0 1 -12 -10 -26 -25 -32 -30 -114 -7 -114 22 0 76 49 76 69 0 10 3 21 7 25 4 3 8 14 9 22 1 9 -1 13 -4 9 -4 -4 -7 -11 -7 -17 0 -6 -11 -15 -24 -20 -21 -7 -22 -6 -11 7 15 18 0 20 -19 3 -11 -11 -11 -9 -2 9 6 12 8 28 5 36 -3 8 1 17 8 20 28 10 94 177 71 177 -5 0 -27 -18 -48 -40 -35 -36 -40 -46 -39 -86 1 -28 -2 -40 -7 -32 -14 21 -10 61 9 89 16 24 113 127 120 128 2 1 32 -28 67 -63z m-348 48 c-3 -3 -12 -4 -19 -1 -8 3 -5 6 6 6 11 1 17 -2 13 -5z m63 -4 c12 -8 11 -10 -7 -10 -13 0 -23 5 -23 10 0 13 11 13 30 0z m-363 -17 c-4 -3 -7 0 -7 7 0 7 3 10 7 7 3 -4 3 -10 0 -14z m18 -33 c10 -11 16 -20 13 -20 -3 0 -13 9 -23 20 -10 11 -16 20 -13 20 3 0 13 -9 23 -20z m61 -38 c-10 -2 -22 0 -28 6 -6 6 0 7 19 4 21 -5 23 -7 9 -10z m141 2 c-3 -3 -12 -4 -19 -1 -8 3 -5 6 6 6 11 1 17 -2 13 -5z m-59 -11 c-10 -2 -26 -2 -35 0 -10 3 -2 5 17 5 19 0 27 -2 18 -5z"/>
<path d="M866 474 c6 -43 53 -145 70 -151 16 -5 27 59 15 88 -5 13 -27 41 -49 63 l-40 38 4 -38z"/>
</g>
<g id="layer114" fill="#cf6f51" stroke="none">
<path d="M0 425 l0 -425 605 0 605 0 0 425 0 425 -605 0 -605 0 0 -425z m943 312 c35 -15 97 -64 97 -77 0 -4 -18 -4 -41 0 -42 8 -117 -4 -134 -21 -11 -11 -25 -12 -25 0 0 17 91 43 131 38 35 -5 38 -3 28 10 -23 27 -88 53 -134 53 -30 0 -76 -12 -133 -36 -83 -34 -91 -36 -172 -31 -47 3 -98 9 -115 12 -29 6 -29 5 7 -14 52 -29 53 -36 8 -50 -22 -6 -40 -16 -40 -21 0 -4 20 -16 45 -26 25 -9 43 -19 41 -22 -3 -2 -29 7 -58 21 -95 45 -175 49 -224 12 -33 -25 -50 -70 -40 -102 11 -32 77 -67 137 -71 66 -5 210 34 187 50 -15 11 12 6 47 -8 18 -7 19 -6 6 10 -13 16 -12 17 13 10 18 -4 31 -2 36 5 4 7 28 14 53 16 l47 4 -25 -37 c-14 -20 -25 -44 -25 -54 0 -44 -123 -73 -278 -66 -81 4 -108 9 -162 34 -98 46 -152 116 -152 196 1 40 18 82 31 74 5 -3 17 4 27 17 l19 22 -22 -19 c-13 -11 -23 -15 -23 -10 1 13 40 39 80 53 53 18 161 23 300 13 116 -8 121 -9 73 -16 -80 -13 -54 -29 36 -23 55 3 95 13 146 35 78 35 153 41 208 19z m-68 -148 c-22 -10 -49 -18 -60 -18 -11 0 3 8 30 18 66 24 80 24 30 0z m-558 4 c-4 -3 -10 -3 -14 0 -3 4 0 7 7 7 7 0 10 -3 7 -7z m-27 -6 c0 -2 -8 -12 -19 -21 -16 -15 -19 -15 -24 -2 -4 10 -1 13 7 10 8 -3 17 -1 21 5 6 11 15 15 15 8z m367 -14 c35 -3 63 -9 63 -13 0 -10 -128 8 -148 20 -15 10 -15 11 3 5 11 -3 48 -9 82 -12z m-102 -3 c3 -5 4 -10 1 -10 -3 0 -8 5 -11 10 -3 6 -4 10 -1 10 3 0 8 -4 11 -10z m223 -7 c-10 -2 -26 -2 -35 0 -10 3 -2 5 17 5 19 0 27 -2 18 -5z m117 -67 c70 -69 83 -100 67 -152 -9 -31 -8 -37 14 -59 13 -13 24 -30 24 -37 -1 -7 -8 -1 -16 15 -8 15 -19 27 -25 27 -6 0 -5 -9 2 -22 11 -21 11 -22 -4 -9 -15 12 -17 11 -17 -2 0 -10 -6 -14 -14 -11 -30 12 -24 -26 10 -55 43 -38 52 -39 60 -3 10 47 14 49 10 4 -2 -24 -7 -46 -9 -49 -7 -6 -47 15 -74 40 -18 16 -36 20 -85 20 -53 0 -71 -5 -112 -31 -28 -18 -54 -32 -58 -32 -4 0 -8 27 -8 60 0 58 2 62 45 108 54 56 85 116 85 163 l0 34 -42 -43 c-39 -38 -43 -47 -42 -88 1 -27 -2 -40 -7 -32 -24 38 5 106 65 152 19 14 38 35 41 46 3 11 11 20 17 20 5 0 38 -29 73 -64z m-348 48 c-3 -3 -12 -4 -19 -1 -8 3 -5 6 6 6 11 1 17 -2 13 -5z m63 -4 c12 -8 11 -10 -7 -10 -13 0 -23 5 -23 10 0 13 11 13 30 0z m-363 -17 c-4 -3 -7 0 -7 7 0 7 3 10 7 7 3 -4 3 -10 0 -14z m18 -33 c10 -11 16 -20 13 -20 -3 0 -13 9 -23 20 -10 11 -16 20 -13 20 3 0 13 -9 23 -20z m61 -38 c-10 -2 -22 0 -28 6 -6 6 0 7 19 4 21 -5 23 -7 9 -10z m141 2 c-3 -3 -12 -4 -19 -1 -8 3 -5 6 6 6 11 1 17 -2 13 -5z m-59 -11 c-10 -2 -26 -2 -35 0 -10 3 -2 5 17 5 19 0 27 -2 18 -5z"/>
<path d="M870 471 c0 -38 31 -109 58 -134 19 -17 20 -17 26 16 8 45 -4 74 -48 116 l-36 35 0 -33z"/>
<path d="M686 268 c-21 -29 -22 -108 -2 -108 22 0 76 49 76 69 0 10 3 21 7 25 4 3 8 14 9 22 1 9 -1 13 -4 9 -4 -4 -7 -11 -7 -17 0 -6 -10 -14 -22 -19 -18 -7 -21 -5 -16 9 6 15 4 15 -9 4 -14 -11 -16 -10 -11 7 7 27 -2 27 -21 -1z"/>
</g>
<g id="layer115" fill="#f76a30" stroke="none">
<path d="M0 425 l0 -425 605 0 605 0 0 425 0 425 -605 0 -605 0 0 -425z m943 312 c37 -16 97 -64 97 -78 0 -6 -4 -7 -10 -4 -20 12 -120 7 -151 -9 -37 -19 -39 -19 -39 -7 0 13 82 41 123 41 45 0 41 12 -13 40 -59 30 -117 26 -218 -16 -82 -34 -91 -36 -172 -31 -47 3 -98 8 -115 12 -29 6 -29 5 7 -14 52 -29 54 -38 8 -52 -22 -7 -40 -16 -40 -20 0 -4 20 -15 45 -25 25 -9 43 -19 41 -21 -2 -3 -26 5 -53 17 -103 47 -180 52 -229 15 -33 -25 -50 -70 -40 -102 3 -10 23 -29 44 -42 54 -36 130 -39 221 -11 84 27 86 37 2 21 -32 -6 -78 -9 -102 -5 -43 6 -116 50 -105 62 4 3 15 -4 26 -16 29 -31 60 -36 164 -27 50 4 111 8 136 7 33 0 40 2 25 8 -13 6 -15 9 -5 10 8 0 39 3 69 7 58 6 58 7 20 -47 -9 -14 -19 -36 -20 -50 -6 -41 -61 -53 -229 -54 -139 -1 -147 0 -207 28 -73 33 -137 97 -152 150 -33 121 65 206 238 206 125 0 296 -13 276 -21 -11 -4 -35 -8 -53 -8 -22 -1 -31 -5 -26 -12 13 -22 152 -4 229 30 78 34 154 40 208 18z m-70 -148 c-74 -34 -199 -40 -297 -14 -23 6 -27 5 -21 -5 6 -9 4 -11 -4 -5 -26 16 6 26 50 16 70 -17 188 -12 244 8 66 24 81 24 28 0z m-570 -4 c-17 -7 -38 -26 -46 -41 l-14 -27 1 30 c0 17 4 29 8 26 5 -2 18 3 30 11 12 9 29 16 38 16 8 -1 1 -7 -17 -15z m316 -51 c2 -2 -7 -4 -21 -4 -15 0 -25 6 -25 14 0 12 5 13 21 4 12 -6 23 -12 25 -14z m242 5 c6 -12 30 -40 54 -63 49 -46 62 -83 48 -130 -9 -28 -7 -36 13 -60 13 -15 24 -32 23 -39 0 -7 -5 -2 -11 10 -6 12 -17 24 -24 27 -12 5 -12 2 -3 -17 11 -20 11 -21 -4 -8 -15 12 -17 11 -17 -2 0 -10 -6 -14 -15 -11 -28 11 -16 -33 16 -60 39 -33 47 -33 55 2 10 47 14 49 10 4 -2 -24 -7 -46 -9 -49 -7 -6 -47 15 -75 40 -18 17 -35 20 -85 20 -53 -1 -71 -6 -112 -32 -27 -17 -53 -31 -57 -31 -4 0 -8 27 -8 59 0 49 5 65 25 89 21 26 23 33 13 59 -17 45 -3 78 57 138 30 30 55 59 55 65 0 19 39 10 51 -11z m-314 5 c-3 -3 -12 -4 -19 -1 -8 3 -5 6 6 6 11 1 17 -2 13 -5z"/>
<path d="M114 658 l-19 -23 23 19 c12 11 22 21 22 23 0 8 -8 2 -26 -19z"/>
<path d="M370 646 c0 -2 7 -7 16 -10 8 -3 12 -2 9 4 -6 10 -25 14 -25 6z"/>
<path d="M430 629 c0 -5 5 -7 10 -4 6 3 10 8 10 11 0 2 -4 4 -10 4 -5 0 -10 -5 -10 -11z"/>
<path d="M540 460 c20 -13 33 -13 25 0 -3 6 -14 10 -23 10 -15 0 -15 -2 -2 -10z"/>
<path d="M553 373 c4 -3 10 -3 14 0 3 4 0 7 -7 7 -7 0 -10 -3 -7 -7z"/>
<path d="M686 268 c-21 -29 -22 -108 -2 -108 22 0 76 49 76 69 0 10 3 21 7 25 4 3 8 14 9 22 1 9 -1 13 -4 9 -4 -4 -7 -11 -7 -17 0 -6 -10 -14 -22 -19 -18 -7 -21 -5 -16 9 6 15 5 16 -12 2 -16 -14 -17 -13 -11 8 9 28 2 28 -18 0z"/>
<path d="M803 223 c4 -3 10 -3 14 0 3 4 0 7 -7 7 -7 0 -10 -3 -7 -7z"/>
</g>
<g id="layer116" fill="#b48675" stroke="none">
<path d="M0 425 l0 -425 605 0 605 0 0 425 0 425 -605 0 -605 0 0 -425z m943 312 c37 -16 97 -64 97 -78 0 -6 -4 -7 -10 -4 -20 12 -120 7 -151 -9 -37 -19 -39 -19 -39 -7 0 13 82 41 123 41 45 0 41 12 -13 40 -59 30 -117 26 -218 -16 -84 -35 -90 -36 -185 -32 l-99 5 29 -22 28 -23 -43 -12 c-23 -7 -42 -17 -42 -21 0 -4 20 -15 45 -25 25 -9 43 -19 41 -21 -3 -3 -30 7 -62 21 -64 30 -91 32 -139 12 -63 -27 -68 -88 -8 -115 34 -16 137 -14 230 4 43 9 102 18 132 22 58 6 58 7 20 -47 -9 -14 -19 -36 -20 -50 -6 -41 -61 -53 -229 -54 -139 -1 -147 0 -207 28 -73 33 -137 97 -152 150 -33 121 65 206 238 206 125 0 296 -13 276 -21 -11 -4 -32 -8 -47 -8 -16 -1 -28 -6 -28 -12 0 -23 149 -3 225 30 78 34 154 40 208 18z m-70 -148 c-74 -34 -199 -40 -297 -14 -23 6 -27 5 -21 -5 6 -9 4 -11 -4 -5 -26 16 6 26 50 16 70 -17 188 -12 244 8 66 24 81 24 28 0z m-254 -55 c2 -2 -7 -4 -21 -4 -15 0 -25 6 -25 14 0 12 5 13 21 4 12 -6 23 -12 25 -14z m242 5 c6 -12 30 -40 54 -63 49 -46 62 -83 48 -130 -9 -28 -7 -36 13 -60 13 -15 24 -32 23 -39 0 -7 -5 -2 -11 10 -6 12 -17 24 -24 27 -12 5 -12 2 -3 -17 11 -20 11 -21 -4 -8 -15 12 -17 11 -17 -2 0 -10 -6 -14 -15 -11 -28 11 -16 -33 16 -60 39 -33 47 -33 55 2 10 47 14 49 10 4 -2 -24 -7 -46 -9 -49 -7 -6 -47 15 -75 40 -18 17 -35 20 -85 20 -53 -1 -71 -6 -112 -32 -27 -17 -53 -31 -57 -31 -4 0 -8 27 -8 59 0 49 5 65 25 89 21 26 23 33 13 59 -17 45 -3 78 57 138 30 30 55 59 55 65 0 19 39 10 51 -11z m-314 5 c-3 -3 -12 -4 -19 -1 -8 3 -5 6 6 6 11 1 17 -2 13 -5z"/>
</g>
<g id="layer117" fill="#ce786d" stroke="none">
<path d="M0 425 l0 -425 605 0 605 0 0 425 0 425 -605 0 -605 0 0 -425z m948 309 c38 -15 92 -61 92 -76 0 -5 -4 -6 -10 -3 -20 12 -120 7 -151 -9 -37 -19 -39 -19 -39 -7 0 13 82 41 123 41 47 0 41 15 -17 41 -62 28 -115 24 -214 -17 -84 -35 -90 -36 -184 -32 -54 3 -98 4 -98 2 0 -1 14 -11 31 -22 l31 -19 -46 -13 c-25 -7 -46 -16 -46 -21 0 -4 24 -16 53 -27 28 -11 59 -22 67 -25 11 -4 9 -6 -5 -6 -11 -1 -49 13 -83 29 -71 34 -97 36 -147 16 -63 -27 -68 -88 -8 -115 34 -16 138 -14 230 4 96 19 202 29 188 18 -21 -16 -53 -69 -56 -93 -6 -41 -61 -53 -229 -54 -139 -1 -147 0 -207 28 -147 67 -202 203 -119 291 58 61 157 75 416 56 95 -7 95 -7 43 -15 -83 -13 -65 -30 25 -23 55 4 97 14 147 36 80 35 154 40 213 15z m-75 -145 c-74 -34 -199 -40 -297 -14 -23 6 -27 5 -21 -6 5 -8 -1 -5 -13 5 -29 25 -21 31 20 16 18 -6 78 -14 133 -16 81 -4 109 -1 150 14 65 25 81 26 28 1z m-253 -52 c8 -3 1 -6 -16 -6 -20 -1 -31 4 -31 13 0 10 5 12 16 7 9 -5 23 -11 31 -14z m241 2 c6 -12 30 -40 54 -63 49 -46 62 -83 48 -130 -9 -28 -7 -36 13 -60 30 -34 38 -66 30 -112 -6 -30 -10 -34 -29 -28 -12 3 -34 18 -49 32 -24 22 -36 26 -92 25 -53 -1 -71 -6 -98 -26 -52 -39 -75 -42 -80 -12 -8 40 7 104 31 129 18 19 19 26 9 52 -17 46 -2 83 58 140 30 29 54 57 54 63 0 19 39 12 51 -10z"/>
<path d="M745 460 c-32 -33 -40 -48 -40 -80 0 -70 22 -66 61 12 15 29 24 62 22 79 l-3 30 -40 -41z"/>
<path d="M870 474 c0 -34 48 -136 67 -142 16 -4 26 49 14 79 -5 13 -25 40 -45 58 l-36 35 0 -30z"/>
<path d="M686 268 c-21 -29 -22 -108 -2 -108 23 0 76 50 76 72 0 15 -5 19 -19 15 -15 -4 -18 -1 -13 12 5 14 4 14 -13 1 -16 -14 -17 -13 -11 8 9 28 2 28 -18 0z"/>
</g>
<g id="layer118" fill="#d58b73" stroke="none">
<path d="M0 425 l0 -425 605 0 605 0 0 425 0 425 -605 0 -605 0 0 -425z m948 309 c34 -14 92 -60 92 -73 0 -3 -36 -6 -80 -6 -91 0 -119 -14 -74 -38 l27 -14 -54 -20 c-95 -35 -165 -37 -283 -7 -23 5 -27 4 -21 -7 5 -8 -1 -5 -13 5 -29 25 -21 31 20 17 54 -19 189 -25 249 -11 70 17 74 19 50 37 -12 8 -21 18 -21 22 0 15 78 41 121 41 49 0 44 14 -15 41 -59 27 -107 23 -205 -15 -114 -45 -136 -49 -216 -36 -37 6 -70 9 -72 6 -3 -2 10 -12 29 -22 l33 -18 -47 -15 c-69 -21 -68 -24 41 -62 30 -11 57 -15 60 -11 3 5 20 3 36 -5 29 -13 28 -14 -28 -9 -36 3 -84 17 -124 35 -73 35 -98 37 -148 17 -63 -27 -68 -88 -8 -115 34 -16 138 -14 230 4 43 9 105 18 138 22 l60 6 -23 -26 c-13 -14 -30 -42 -37 -64 -16 -47 -47 -59 -180 -73 -191 -20 -342 38 -400 153 -14 28 -25 61 -25 74 0 68 60 134 140 152 51 12 202 13 330 2 l85 -7 -52 -8 c-81 -13 -66 -30 21 -23 48 3 98 16 147 35 85 35 159 41 217 16z m-88 -195 c6 -11 34 -42 61 -68 41 -39 49 -53 48 -82 0 -19 -4 -43 -8 -54 -6 -14 -2 -28 15 -48 30 -35 38 -67 30 -112 -8 -43 -20 -44 -74 -4 -36 27 -52 31 -101 31 -49 0 -65 -4 -101 -31 -54 -39 -66 -39 -74 2 -7 40 7 93 34 122 17 18 18 25 8 51 -17 45 -2 84 51 134 26 25 51 53 54 63 9 23 44 22 57 -4z"/>
<path d="M873 463 c5 -43 50 -133 66 -133 13 0 21 58 12 83 -5 12 -26 38 -46 57 l-38 35 6 -42z"/>
<path d="M742 457 c-27 -28 -32 -41 -32 -80 0 -26 4 -47 10 -47 15 0 60 85 67 124 7 45 -4 45 -45 3z"/>
<path d="M690 275 c-7 -9 -15 -38 -18 -65 -5 -59 4 -63 55 -24 37 28 47 70 14 61 -15 -4 -18 -1 -13 12 5 14 4 14 -13 1 -16 -14 -17 -13 -11 8 9 26 4 28 -14 7z"/>
<path d="M960 270 c15 -28 12 -37 -5 -14 -13 17 -14 17 -15 2 0 -11 -5 -15 -15 -12 -28 11 -16 -33 16 -60 17 -14 35 -26 40 -26 29 0 14 112 -17 124 -11 4 -12 2 -4 -14z"/>
</g>
<g id="layer119" fill="#ec9173" stroke="none">
<path d="M0 425 l0 -425 605 0 605 0 0 425 0 425 -605 0 -605 0 0 -425z m953 309 c32 -16 87 -63 87 -73 0 -3 -36 -6 -80 -6 -89 0 -124 -16 -75 -35 l28 -11 -21 -15 c-12 -8 -56 -22 -98 -31 -75 -17 -135 -13 -223 13 -19 6 -22 4 -16 -7 5 -8 -1 -5 -13 5 -12 11 -21 21 -19 22 2 2 37 -3 78 -12 80 -17 189 -14 247 6 32 12 33 13 13 27 -12 8 -21 18 -21 22 0 15 55 35 110 40 l55 6 -40 25 c-61 38 -138 35 -235 -9 -80 -37 -146 -44 -240 -28 -38 6 -42 5 -27 -5 55 -38 55 -36 5 -48 -27 -7 -48 -16 -48 -20 0 -13 112 -52 133 -46 10 2 33 -2 50 -10 32 -15 31 -15 -26 -10 -35 3 -84 17 -124 35 -36 17 -74 31 -84 31 -38 0 -96 -31 -108 -58 -12 -24 -10 -29 18 -54 27 -24 40 -28 95 -28 35 0 100 7 143 15 43 8 107 18 143 21 l65 7 -21 -24 c-28 -32 -44 -63 -44 -88 0 -24 -33 -34 -162 -51 -200 -27 -374 45 -423 174 -24 63 -14 111 35 157 47 45 100 59 223 59 138 0 285 -12 262 -21 -11 -4 -35 -8 -52 -8 -18 -1 -33 -6 -33 -12 0 -22 139 -3 215 29 83 35 177 42 228 16z m-45 -246 c53 -58 62 -73 62 -105 0 -21 -4 -44 -9 -52 -7 -10 -2 -24 15 -44 30 -35 38 -67 30 -112 -8 -43 -20 -44 -74 -4 -36 27 -52 31 -101 31 -49 0 -65 -4 -101 -31 -24 -17 -49 -31 -56 -31 -7 0 -15 17 -19 39 -7 42 10 96 38 119 12 10 14 19 6 38 -20 54 -11 83 40 133 26 26 54 57 60 70 18 33 40 23 109 -51z"/>
<path d="M873 463 c5 -44 50 -133 67 -133 10 0 14 34 10 75 -1 11 -20 38 -42 60 l-40 40 5 -42z"/>
<path d="M685 260 c-16 -31 -21 -100 -6 -100 21 0 76 48 79 69 3 19 0 22 -17 16 -17 -5 -20 -3 -14 12 6 16 5 17 -12 3 -16 -14 -17 -13 -11 8 10 31 -1 27 -19 -8z"/>
<path d="M960 270 c15 -28 12 -37 -5 -14 -13 17 -14 17 -15 2 0 -11 -5 -15 -15 -12 -31 12 -15 -35 21 -62 29 -23 37 -25 45 -13 18 28 0 103 -27 113 -11 4 -12 2 -4 -14z"/>
</g>
<g id="layer120" fill="#df9b91" stroke="none">
<path d="M0 425 l0 -425 605 0 605 0 0 425 0 425 -605 0 -605 0 0 -425z m953 309 c32 -16 87 -63 87 -73 0 -3 -26 -5 -58 -3 -36 2 -72 -2 -93 -11 l-34 -15 29 -11 c28 -11 28 -12 10 -25 -10 -7 -30 -17 -43 -21 -13 -4 -19 -10 -14 -14 5 -3 37 -36 71 -73 53 -58 62 -73 62 -105 0 -21 -4 -44 -9 -52 -7 -10 -2 -24 15 -44 30 -35 38 -67 30 -112 -8 -43 -20 -44 -72 -6 -32 24 -51 30 -100 32 -53 2 -64 -1 -103 -29 -24 -18 -50 -32 -57 -32 -7 0 -15 17 -19 39 -7 42 10 96 38 119 12 10 14 19 6 38 -20 54 -11 83 40 133 26 26 53 57 60 69 12 23 12 23 -51 16 -45 -4 -82 -1 -127 10 -75 19 -74 19 -65 4 4 -7 -2 -4 -14 6 -12 11 -21 21 -19 22 2 2 37 -3 78 -12 80 -17 189 -14 247 6 32 12 33 13 13 27 -12 8 -21 18 -21 22 0 15 55 35 110 40 l55 6 -39 24 c-59 37 -120 39 -197 6 -137 -57 -147 -59 -232 -49 l-79 10 27 -22 27 -22 -38 -12 c-22 -7 -43 -16 -47 -20 -12 -11 102 -53 126 -46 10 2 33 -2 50 -10 32 -15 32 -15 -24 -10 -33 2 -87 18 -128 36 -79 34 -121 34 -166 -2 -59 -46 -7 -108 91 -108 27 0 99 9 159 20 60 11 127 20 149 20 l39 0 -20 -22 c-27 -30 -43 -62 -43 -87 0 -25 -38 -37 -167 -52 -158 -19 -291 18 -374 104 -96 99 -65 234 64 272 54 16 257 19 372 6 60 -7 60 -7 23 -15 -21 -5 -38 -13 -38 -18 0 -18 116 1 187 31 81 34 175 40 226 15z"/>
<path d="M741 455 c-25 -29 -31 -45 -31 -80 0 -25 4 -45 10 -45 15 0 60 85 67 124 7 46 -6 46 -46 1z"/>
<path d="M875 453 c7 -42 51 -123 65 -123 10 0 14 35 10 75 -2 21 -57 85 -73 85 -5 0 -6 -16 -2 -37z"/>
<path d="M685 260 c-16 -32 -20 -86 -6 -94 15 -10 76 39 79 63 3 20 0 22 -18 16 -17 -5 -21 -4 -15 6 6 9 3 11 -9 6 -14 -6 -16 -3 -11 13 9 30 -2 24 -20 -10z"/>
<path d="M965 258 c5 -19 4 -20 -5 -8 -8 11 -13 12 -16 3 -3 -7 -12 -9 -20 -6 -30 11 -14 -36 22 -63 29 -23 37 -25 45 -13 12 19 11 40 -2 78 -12 35 -34 43 -24 9z"/>
</g>
<g id="layer121" fill="#dba8a6" stroke="none">
<path d="M0 425 l0 -425 605 0 605 0 0 425 0 425 -605 0 -605 0 0 -425z m960 305 c37 -19 80 -56 80 -68 0 -4 -23 -5 -52 -3 -56 3 -132 -14 -123 -29 4 -6 17 -10 31 -10 38 0 28 -17 -20 -35 l-45 -17 69 -72 c61 -62 70 -76 70 -109 0 -21 -5 -47 -10 -57 -8 -14 -6 -21 4 -27 36 -20 59 -116 37 -152 -11 -17 -42 -8 -79 24 -22 18 -42 24 -89 26 -53 2 -65 -1 -92 -24 -34 -28 -69 -43 -79 -32 -4 4 -7 31 -6 61 0 44 5 59 27 81 19 21 24 32 17 43 -5 8 -10 33 -10 54 0 33 7 46 51 90 80 80 80 85 4 79 -55 -5 -107 2 -179 24 -14 4 -16 2 -11 -8 5 -8 -1 -5 -13 5 -12 11 -20 21 -18 23 2 2 41 -3 86 -13 86 -17 177 -14 239 7 l31 11 -22 17 c-11 10 -18 23 -14 29 10 17 98 41 132 35 l29 -5 -25 21 c-62 51 -133 51 -246 1 -82 -37 -137 -45 -219 -32 l-59 10 28 -23 28 -23 -38 -12 c-22 -7 -43 -15 -47 -17 -16 -9 77 -44 125 -48 26 -2 55 -9 65 -15 40 -25 -92 -3 -157 25 -74 34 -130 37 -168 8 -66 -49 -18 -113 85 -113 29 0 99 9 155 20 57 11 123 20 146 20 l44 0 -26 -31 c-14 -17 -29 -43 -32 -57 -3 -15 -7 -32 -9 -38 -5 -17 -151 -39 -255 -38 -110 1 -180 23 -253 79 -114 87 -114 231 0 286 40 20 68 24 162 27 62 3 156 1 210 -4 89 -7 93 -8 59 -18 -21 -5 -38 -14 -38 -19 0 -16 111 3 180 31 116 46 168 49 240 12z"/>
<path d="M685 260 c-16 -31 -19 -58 -9 -85 6 -14 9 -14 33 1 50 32 72 82 30 69 -15 -5 -19 -4 -15 4 4 6 3 11 -3 11 -5 0 -12 -6 -15 -12 -3 -7 -4 -1 -1 15 7 35 -1 34 -20 -3z"/>
<path d="M967 259 c6 -22 5 -23 -10 -10 -16 12 -17 12 -11 -5 6 -16 5 -17 -7 -6 -19 17 -29 15 -29 -7 0 -21 66 -78 77 -68 12 13 5 89 -10 104 -15 15 -15 14 -10 -8z"/>
</g>
<g id="layer122" fill="#f3ad95" stroke="none">
<path d="M0 425 l0 -425 605 0 605 0 0 425 0 425 -605 0 -605 0 0 -425z m931 317 c46 -17 82 -42 108 -75 12 -16 9 -17 -46 -11 -37 4 -74 2 -97 -6 -39 -13 -40 -30 0 -30 38 0 28 -17 -20 -35 l-45 -17 69 -72 c61 -62 70 -76 70 -109 0 -21 -5 -47 -10 -57 -8 -14 -6 -21 4 -27 35 -19 58 -110 40 -157 -5 -14 -9 -14 -37 0 -18 9 -41 24 -52 34 -31 28 -138 30 -168 3 -12 -11 -36 -28 -54 -37 l-32 -16 -7 35 c-9 50 3 98 31 125 19 17 22 27 15 41 -6 10 -10 35 -10 57 0 34 6 45 50 86 27 25 54 55 59 65 10 17 6 18 -57 14 -43 -3 -88 0 -126 10 -33 9 -64 13 -69 10 -9 -5 -26 14 -27 29 0 3 21 -1 48 -9 60 -20 224 -22 276 -4 l38 13 -26 18 c-23 15 -25 19 -12 29 24 20 100 39 131 34 39 -8 26 8 -30 36 -60 30 -112 25 -210 -19 -82 -37 -138 -45 -217 -32 -32 5 -58 7 -58 5 0 -2 14 -12 30 -22 l31 -18 -46 -13 c-25 -7 -47 -16 -50 -20 -6 -9 122 -53 133 -46 5 3 27 -1 48 -8 l39 -15 -46 0 c-48 -1 -128 22 -167 47 -34 22 -107 20 -140 -5 -66 -49 -18 -113 85 -113 29 0 99 9 155 20 57 11 123 20 146 20 l44 0 -26 -31 c-14 -17 -29 -43 -32 -57 -3 -15 -7 -32 -9 -38 -5 -17 -151 -39 -255 -38 -110 1 -180 23 -253 79 -114 87 -114 230 0 286 46 23 57 24 265 24 207 0 255 -5 168 -20 -22 -4 -40 -11 -40 -17 0 -17 108 1 180 30 115 46 144 49 211 24z"/>
<path d="M741 455 c-25 -29 -31 -45 -31 -80 0 -25 4 -45 10 -45 14 0 58 81 65 123 9 47 -4 48 -44 2z"/>
<path d="M871 473 c1 -37 54 -143 71 -143 4 0 8 20 8 45 0 35 -6 51 -31 80 -34 39 -49 44 -48 18z"/>
<path d="M686 261 c-17 -32 -20 -69 -8 -88 10 -16 69 23 78 50 8 25 -2 33 -23 16 -15 -12 -16 -12 -10 4 3 9 2 17 -2 17 -5 0 -12 -7 -15 -16 -4 -9 -9 -14 -12 -11 -3 3 0 15 6 27 6 12 9 24 7 27 -3 3 -13 -9 -21 -26z"/>
<path d="M967 260 c6 -23 5 -24 -10 -11 -16 12 -17 12 -11 -5 6 -16 5 -17 -7 -6 -19 17 -29 15 -29 -7 0 -18 65 -79 74 -70 14 15 9 82 -9 105 -13 18 -14 18 -8 -6z"/>
</g>
<g id="layer123" fill="#f6b6ab" stroke="none">
<path d="M0 425 l0 -425 605 0 605 0 0 425 0 425 -605 0 -605 0 0 -425z m926 320 c46 -14 81 -38 113 -78 14 -17 11 -18 -37 -11 -32 4 -69 2 -97 -6 -46 -13 -52 -30 -9 -30 36 0 29 -13 -18 -36 l-41 -20 65 -70 c35 -38 67 -76 71 -85 3 -9 1 -35 -5 -57 -9 -35 -7 -44 7 -58 31 -31 46 -105 29 -148 -5 -14 -10 -13 -43 4 -21 10 -43 26 -50 34 -10 12 -32 16 -81 16 -49 0 -71 -4 -81 -16 -7 -8 -30 -24 -50 -35 l-38 -19 -7 35 c-9 50 3 98 31 125 19 17 22 27 15 41 -6 10 -10 35 -10 56 0 34 7 46 55 93 30 30 55 59 55 65 0 8 -20 10 -59 7 -51 -4 -113 4 -176 23 -11 3 3 -6 30 -21 l50 -25 -66 4 c-44 3 -83 13 -118 31 -70 35 -139 36 -178 2 -24 -21 -26 -27 -18 -52 20 -55 96 -65 257 -34 57 11 125 20 151 20 l48 0 -25 -32 c-13 -18 -28 -49 -33 -68 -8 -32 -14 -36 -64 -48 -30 -7 -108 -14 -174 -15 -104 -1 -128 2 -178 22 -151 60 -222 180 -169 281 42 79 159 106 386 90 74 -6 143 -7 153 -3 12 4 15 3 8 -5 -5 -6 -26 -15 -45 -20 -35 -10 -34 -10 18 -11 36 -1 75 8 119 25 122 49 137 51 209 29z"/>
<path d="M800 726 c-19 -7 -57 -24 -85 -37 -43 -20 -65 -24 -147 -23 -96 0 -97 0 -71 -17 l27 -18 -47 -12 c-26 -6 -47 -15 -47 -19 0 -8 101 -50 120 -50 6 0 1 9 -10 20 -32 32 -23 39 28 23 61 -20 204 -22 265 -4 l48 14 -27 17 -26 18 23 15 c31 20 107 40 126 33 29 -11 1 15 -37 34 -44 23 -89 24 -140 6z"/>
<path d="M747 459 c-32 -32 -37 -43 -37 -83 0 -25 3 -46 8 -46 11 0 47 61 61 103 19 58 9 67 -32 26z"/>
<path d="M875 458 c8 -39 55 -128 67 -128 4 0 8 20 8 44 0 46 -24 86 -62 107 -19 10 -20 9 -13 -23z"/>
<path d="M968 258 c5 -21 4 -22 -11 -9 -16 12 -17 12 -10 -5 6 -16 5 -17 -9 -6 -11 9 -18 9 -23 3 -9 -16 13 -49 44 -66 27 -14 29 -13 33 8 5 26 -8 84 -21 92 -5 3 -7 -5 -3 -17z"/>
<path d="M680 251 c-12 -23 -13 -61 -2 -78 6 -9 16 -7 40 10 34 24 46 43 36 58 -3 6 -11 5 -20 -2 -11 -9 -14 -8 -14 7 0 17 -1 17 -16 -2 -15 -18 -15 -18 -9 4 8 27 -1 29 -15 3z"/>
</g>
<g id="layer124" fill="#f3d1af" stroke="none">
<path d="M0 425 l0 -425 605 0 605 0 0 425 0 425 -605 0 -605 0 0 -425z m976 300 c23 -13 49 -36 58 -50 l17 -26 -48 7 c-52 7 -137 -11 -128 -26 4 -6 15 -10 26 -10 31 0 22 -15 -22 -36 l-41 -20 65 -69 c72 -79 81 -97 68 -143 -8 -28 -6 -39 15 -69 16 -24 24 -50 24 -79 0 -80 -13 -86 -80 -34 -31 24 -45 28 -100 28 -55 0 -69 -4 -100 -28 -56 -44 -68 -45 -76 -5 -9 48 2 99 27 121 17 15 19 25 13 59 -12 65 -8 74 53 139 l58 61 -90 6 c-49 3 -103 9 -120 12 -26 6 -24 4 10 -13 l40 -19 -55 0 c-39 0 -76 8 -125 29 -38 17 -84 30 -103 30 -55 0 -102 -33 -102 -70 0 -5 10 -18 21 -29 33 -31 97 -36 207 -16 107 19 232 31 232 21 0 -3 -10 -17 -22 -31 -13 -14 -28 -43 -34 -63 -11 -37 -11 -37 -95 -55 -128 -27 -258 -19 -346 23 -79 36 -105 59 -140 118 -46 79 -20 173 59 214 50 26 157 40 253 34 44 -4 115 -7 158 -8 80 -2 87 -9 27 -26 l-35 -10 48 -1 c42 -1 76 9 217 63 30 11 125 -5 166 -29z"/>
<path d="M830 733 c-8 -2 -55 -21 -105 -40 -85 -34 -94 -35 -175 -30 -82 6 -84 5 -55 -10 l30 -16 -25 -10 c-82 -31 -79 -28 -35 -47 22 -10 51 -21 64 -25 23 -7 23 -7 7 16 -24 35 -21 37 37 21 62 -17 195 -19 255 -3 l43 12 -22 18 -23 18 25 16 c13 9 49 23 79 31 l55 14 -45 21 c-44 20 -79 25 -110 14z"/>
<path d="M970 256 c0 -15 -3 -16 -15 -6 -13 11 -14 10 -9 -3 4 -12 1 -14 -15 -10 -29 7 -26 -13 5 -42 39 -36 54 -32 54 13 0 20 -5 44 -10 52 -8 13 -10 12 -10 -4z"/>
</g>
<g id="layer125" fill="#fccbb5" stroke="none">
<path d="M0 425 l0 -425 605 0 605 0 0 425 0 425 -605 0 -605 0 0 -425z m976 300 c23 -13 49 -36 58 -50 l17 -26 -48 7 c-28 3 -67 1 -92 -6 -45 -12 -45 -25 -1 -32 23 -3 20 -6 -23 -29 l-48 -25 64 -70 c72 -78 81 -96 68 -142 -8 -28 -6 -39 15 -69 16 -24 24 -50 24 -79 0 -80 -13 -86 -80 -34 -31 24 -45 28 -100 28 -55 0 -69 -4 -100 -28 -56 -44 -68 -45 -76 -5 -9 48 2 99 27 121 17 15 19 25 13 59 -12 65 -8 74 53 139 l58 61 -90 6 c-49 3 -103 9 -120 14 -41 11 -25 -4 22 -20 l38 -14 -60 0 c-43 0 -77 7 -120 25 -76 33 -114 39 -159 24 -62 -20 -72 -73 -19 -101 36 -19 154 -15 275 9 82 17 148 19 148 6 0 -2 -10 -15 -22 -29 -13 -14 -28 -43 -34 -63 -11 -37 -11 -37 -95 -55 -128 -27 -258 -19 -346 23 -79 36 -105 59 -140 118 -21 35 -25 52 -21 93 13 130 111 165 418 151 l165 -7 -45 -17 -45 -16 43 -1 c36 -1 77 11 212 63 30 11 125 -5 166 -29z"/>
<path d="M830 733 c-8 -2 -55 -21 -105 -40 -85 -34 -94 -35 -175 -30 -82 6 -84 5 -55 -10 l30 -16 -25 -10 c-82 -31 -79 -28 -35 -47 22 -10 51 -21 63 -25 23 -7 24 -7 6 19 -19 30 -14 42 13 28 56 -29 236 -33 306 -6 17 6 16 8 -3 21 -11 8 -20 18 -20 23 0 9 70 38 122 50 l33 7 -45 21 c-44 21 -79 26 -110 15z"/>
<path d="M746 455 c-29 -29 -36 -43 -36 -75 0 -22 5 -40 10 -40 22 0 82 132 67 147 -3 2 -21 -12 -41 -32z"/>
<path d="M876 453 c9 -39 46 -106 62 -111 24 -7 14 68 -14 105 -32 42 -57 45 -48 6z"/>
<path d="M679 243 c-12 -31 -4 -73 13 -73 14 0 68 50 68 63 0 5 -9 7 -20 4 -14 -4 -20 0 -20 11 0 13 -3 12 -16 -4 -15 -18 -15 -18 -9 4 9 31 -3 28 -16 -5z"/>
<path d="M973 252 c5 -23 5 -23 -14 -6 -17 15 -19 15 -14 2 5 -13 2 -15 -14 -11 -29 7 -26 -13 5 -42 39 -36 54 -32 54 13 0 20 -5 44 -11 52 -9 12 -10 10 -6 -8z"/>
</g>
<g id="layer126" fill="#fed7cd" stroke="none">
<path d="M0 425 l0 -425 605 0 605 0 0 425 0 425 -605 0 -605 0 0 -425z m921 325 c44 -12 97 -47 116 -76 13 -21 12 -21 -59 -20 -41 0 -82 -4 -93 -11 -19 -11 -18 -13 13 -19 38 -8 31 -23 -22 -43 -39 -16 -41 -12 42 -100 59 -63 69 -87 53 -131 -9 -26 -7 -36 15 -67 20 -31 24 -47 22 -93 -3 -49 -5 -55 -23 -52 -11 2 -35 15 -54 29 -28 22 -46 26 -102 28 -57 2 -72 -1 -86 -17 -10 -11 -31 -27 -47 -35 -24 -12 -30 -13 -37 -1 -21 33 -4 131 27 155 13 9 14 18 5 50 -6 21 -11 44 -11 51 0 7 28 43 63 80 l62 67 -100 5 c-55 4 -107 10 -115 15 -9 5 -12 5 -7 -1 5 -5 23 -15 40 -22 29 -11 25 -12 -43 -9 -57 3 -88 10 -129 32 -43 21 -64 26 -99 22 -50 -5 -99 -45 -89 -71 20 -51 114 -63 262 -33 119 24 168 29 185 18 12 -8 11 -13 -8 -33 -12 -13 -28 -42 -35 -63 -12 -36 -19 -41 -63 -54 -76 -21 -287 -20 -349 2 -63 22 -120 61 -158 110 -43 52 -49 136 -15 187 50 75 135 93 383 84 l180 -7 -40 -18 -40 -18 31 -1 c31 0 71 11 174 49 62 23 98 25 151 11z"/>
<path d="M800 721 c-30 -10 -77 -28 -103 -41 -40 -18 -63 -21 -128 -18 -43 2 -79 1 -79 -1 0 -2 8 -9 17 -16 14 -11 12 -14 -23 -25 -61 -19 -60 -26 7 -49 57 -19 60 -19 45 -3 -13 16 -22 42 -13 42 1 0 24 -7 51 -15 59 -18 203 -20 257 -3 37 11 38 12 19 25 -11 8 -20 18 -20 22 0 11 66 39 115 50 l40 8 -45 21 c-54 26 -69 26 -140 3z"/>
<path d="M757 469 c-24 -14 -47 -62 -47 -99 0 -59 40 -20 65 65 15 47 12 51 -18 34z"/>
<path d="M883 445 c6 -39 43 -105 58 -105 5 0 9 14 9 31 0 36 -32 94 -57 103 -13 5 -15 1 -10 -29z"/>
<path d="M973 252 c5 -19 3 -21 -9 -11 -9 7 -14 8 -14 1 0 -5 -9 -8 -20 -5 -23 6 -25 -4 -7 -28 11 -15 49 -39 61 -39 10 0 6 75 -5 90 -9 12 -10 10 -6 -8z"/>
<path d="M678 232 c-7 -25 0 -62 12 -62 4 0 19 9 34 21 28 22 36 55 11 45 -8 -3 -15 0 -15 6 0 7 -4 7 -14 -1 -11 -9 -15 -9 -18 1 -3 7 -7 3 -10 -10z"/>
</g>
<g id="layer127" fill="#f7dcdd" stroke="none">
<path d="M0 425 l0 -425 605 0 605 0 0 425 0 425 -605 0 -605 0 0 -425z m956 311 c45 -21 94 -66 94 -86 0 -4 -20 -3 -44 2 -30 6 -58 6 -85 -2 -41 -11 -48 -30 -10 -30 31 0 22 -16 -20 -35 -36 -16 -39 -19 -28 -39 7 -11 36 -44 65 -72 54 -53 64 -85 43 -139 -6 -14 -1 -29 16 -52 20 -26 24 -41 21 -89 -2 -32 -8 -59 -14 -61 -6 -2 -33 11 -60 29 -46 31 -53 33 -115 28 -45 -3 -71 -11 -84 -23 -28 -28 -66 -40 -77 -25 -16 24 -3 127 18 149 18 18 19 25 10 69 -9 45 -8 51 18 84 29 38 22 50 -9 16 -10 -11 -15 -20 -10 -20 4 0 3 -6 -2 -12 -6 -7 -13 -25 -17 -40 -5 -23 -14 -28 -64 -40 -31 -7 -115 -13 -187 -13 l-130 0 -79 40 c-64 32 -86 50 -113 89 -28 41 -33 57 -33 106 0 49 4 64 27 91 60 71 161 88 423 71 135 -8 135 -8 100 -24 -33 -16 -34 -16 -9 -17 24 -1 77 15 174 53 58 22 122 20 181 -8z"/>
<path d="M820 725 c-25 -7 -71 -24 -104 -39 -46 -21 -74 -26 -133 -26 -61 0 -74 -3 -70 -14 4 -10 -8 -20 -36 -31 -36 -14 -39 -18 -24 -27 10 -5 32 -14 48 -18 27 -8 29 -7 23 16 -3 13 -5 24 -3 24 2 0 29 -7 59 -15 64 -17 189 -19 243 -4 38 10 38 11 21 30 -17 18 -17 20 2 34 19 15 78 35 102 35 20 0 13 20 -10 29 -47 17 -74 18 -118 6z"/>
<path d="M315 576 c-93 -41 -49 -106 72 -106 31 0 111 10 177 22 115 20 121 20 150 4 30 -18 31 -17 53 10 12 15 20 31 17 35 -2 4 -41 7 -86 7 -55 1 -76 -2 -63 -8 19 -8 18 -9 -5 -11 -64 -6 -106 2 -166 30 -72 34 -103 37 -149 17z"/>
<path d="M742 446 c-25 -29 -32 -45 -30 -69 2 -18 7 -31 13 -31 15 2 57 92 53 116 -3 20 -6 18 -36 -16z"/>
<path d="M880 460 c0 -21 16 -62 39 -98 11 -18 16 -20 22 -10 15 22 10 50 -13 85 -28 40 -48 50 -48 23z"/>
<path d="M976 247 c4 -10 -3 -13 -26 -12 -18 1 -30 -3 -30 -11 0 -16 50 -55 61 -48 12 7 11 71 -1 79 -5 3 -7 0 -4 -8z"/>
<path d="M680 203 c0 -38 8 -41 44 -12 37 29 33 46 -9 45 -33 -1 -35 -3 -35 -33z"/>
</g>
<g id="layer128" fill="#ffe9d9" stroke="none">
<path d="M0 425 l0 -425 605 0 605 0 0 425 0 425 -605 0 -605 0 0 -425z m955 311 c46 -22 109 -78 99 -89 -3 -2 -24 0 -48 5 -30 6 -58 6 -86 -2 -44 -12 -44 -25 0 -32 23 -4 21 -6 -22 -28 -55 -27 -53 -33 30 -115 45 -45 52 -57 52 -91 0 -21 -4 -45 -9 -53 -7 -10 -2 -24 15 -44 22 -26 24 -38 22 -91 -3 -58 -4 -61 -27 -58 -14 1 -40 14 -59 29 -30 23 -43 26 -95 24 -45 -2 -68 -8 -91 -26 -17 -13 -43 -27 -58 -30 -31 -8 -31 -7 -28 75 1 27 9 56 21 73 17 24 19 37 14 78 -6 44 -4 54 20 84 28 37 20 49 -10 15 -10 -11 -15 -20 -10 -20 4 0 3 -6 -2 -12 -6 -7 -13 -25 -17 -40 -5 -23 -14 -28 -64 -40 -31 -7 -115 -13 -187 -13 -125 0 -132 1 -197 32 -73 34 -126 81 -146 126 -7 15 -12 52 -12 82 0 44 5 59 27 86 60 71 161 88 423 71 135 -8 135 -8 100 -24 -33 -16 -34 -16 -9 -17 24 -1 77 15 174 53 58 22 122 20 180 -8z"/>
<path d="M783 711 c-43 -15 -88 -33 -100 -39 -12 -7 -56 -12 -98 -12 -63 0 -76 -3 -72 -14 4 -10 -8 -20 -36 -31 -36 -14 -39 -18 -24 -27 10 -5 32 -14 48 -18 27 -8 29 -7 23 16 -3 13 -5 24 -3 24 2 0 29 -7 59 -15 64 -17 189 -19 243 -4 38 10 38 11 21 30 -17 18 -17 20 2 34 19 15 78 35 102 35 18 0 15 17 -5 25 -56 23 -82 22 -160 -4z"/>
<path d="M315 576 c-93 -41 -49 -106 72 -106 31 0 111 10 177 22 115 20 121 20 150 4 30 -18 31 -17 53 10 12 15 20 31 18 34 -2 4 -41 7 -87 8 -55 1 -76 -2 -63 -8 19 -8 18 -9 -5 -11 -64 -6 -106 2 -166 30 -72 34 -103 37 -149 17z"/>
<path d="M741 444 c-25 -28 -31 -42 -27 -66 6 -40 11 -43 28 -16 18 30 43 107 36 113 -3 3 -20 -11 -37 -31z m29 12 c0 -3 -5 -8 -12 -12 -7 -4 -8 -3 -4 4 7 12 16 16 16 8z"/>
<path d="M880 463 c0 -24 15 -63 39 -101 11 -18 16 -20 22 -10 17 26 8 59 -26 96 -31 33 -34 35 -35 15z"/>
<path d="M680 209 c0 -37 9 -41 41 -18 40 28 37 46 -6 45 -31 -1 -35 -4 -35 -27z"/>
<path d="M920 223 c0 -15 50 -54 61 -47 5 3 9 18 9 33 0 25 -3 27 -35 27 -20 -1 -35 -6 -35 -13z"/>
</g>
<g id="layer129" fill="#fefdfb" stroke="none">
<path d="M0 425 l0 -425 605 0 605 0 0 425 0 425 -605 0 -605 0 0 -425z m931 328 c30 -10 60 -23 67 -30 7 -7 17 -13 22 -13 15 0 41 -58 30 -65 -6 -3 -30 -3 -54 0 -24 4 -54 4 -67 0 -20 -7 -21 -9 -7 -19 20 -15 11 -32 -25 -45 -15 -6 -27 -17 -27 -25 0 -18 48 -76 63 -76 17 0 59 -78 53 -98 -12 -38 -14 -72 -5 -72 5 0 9 -5 9 -12 0 -6 6 -19 14 -27 8 -9 16 -37 17 -64 4 -58 -16 -87 -55 -80 -14 3 -24 9 -21 13 3 5 -14 18 -38 29 -55 27 -142 22 -164 -8 -18 -26 -82 -39 -94 -20 -16 26 -9 95 15 143 18 35 22 54 16 74 -5 15 -9 22 -9 16 -2 -26 -142 -54 -268 -54 -161 0 -328 100 -350 211 -13 61 7 131 45 157 74 52 156 62 426 54 130 -4 153 -10 111 -28 -56 -24 3 -14 77 13 131 47 146 49 219 26z"/>
<path d="M810 715 c-25 -7 -71 -24 -103 -39 -43 -19 -74 -26 -122 -26 -56 0 -65 -2 -65 -18 0 -23 91 -42 204 -42 84 0 124 13 107 34 -15 18 10 39 74 64 l50 20 -40 11 c-47 13 -47 13 -105 -4z"/>
<path d="M475 600 c-19 -7 -19 -8 -2 -15 10 -4 23 -3 29 3 14 14 -3 21 -27 12z"/>
<path d="M305 556 c-54 -50 6 -95 109 -81 28 4 67 9 86 11 19 3 39 9 44 14 4 4 14 6 22 3 7 -2 21 0 31 6 15 9 11 11 -22 10 -39 -1 -143 32 -154 49 -3 4 -25 9 -47 11 -33 2 -47 -3 -69 -23z"/>
<path d="M657 532 c-12 -5 -1 -11 39 -20 43 -10 59 -11 70 -2 7 7 11 16 8 21 -6 10 -91 11 -117 1z"/>
<path d="M735 431 c-17 -34 -20 -71 -5 -71 6 0 10 9 10 19 0 11 4 22 9 25 13 8 20 45 10 51 -4 3 -15 -8 -24 -24z"/>
<path d="M896 452 c-8 -13 21 -82 34 -82 6 0 10 8 10 18 0 23 -36 76 -44 64z"/>
<path d="M691 211 c-6 -10 -8 -21 -4 -24 9 -10 43 12 43 28 0 21 -27 18 -39 -4z"/>
<path d="M936 221 c-7 -10 10 -24 32 -27 19 -3 10 30 -10 34 -9 2 -19 -1 -22 -7z"/>
</g>


</svg>